<?xml version="1.0" encoding="UTF-8" standalone="no"?>
<!-- Created with Inkscape (http://www.inkscape.org/) -->

<svg
   width="60.132755mm"
   height="57.259209mm"
   viewBox="0 0 60.132756 57.259208"
   version="1.1"
   id="svg5"
   inkscape:version="1.2.2 (1:1.2.2+202212051551+b0a8486541)"
   sodipodi:docname="modify_rotation.svg"
   xmlns:inkscape="http://www.inkscape.org/namespaces/inkscape"
   xmlns:sodipodi="http://sodipodi.sourceforge.net/DTD/sodipodi-0.dtd"
   xmlns="http://www.w3.org/2000/svg"
   xmlns:svg="http://www.w3.org/2000/svg">
  <sodipodi:namedview
     id="namedview7"
     pagecolor="#292929"
     bordercolor="#666666"
     borderopacity="1.0"
     inkscape:pageshadow="2"
     inkscape:pageopacity="0"
     inkscape:pagecheckerboard="0"
     inkscape:document-units="mm"
     showgrid="false"
     inkscape:showpageshadow="2"
     inkscape:deskcolor="#292929"
     inkscape:zoom="3.3638608"
     inkscape:cx="127.82931"
     inkscape:cy="77.143501"
     inkscape:window-width="2560"
     inkscape:window-height="1376"
     inkscape:window-x="0"
     inkscape:window-y="0"
     inkscape:window-maximized="1"
     inkscape:current-layer="layer1" />
  <defs
     id="defs2">
    <clipPath
       clipPathUnits="userSpaceOnUse"
       id="clipPath97380">
      <path
         id="path97382"
         style="fill:#ffffff;fill-opacity:0.997501;stroke-width:3.37536;stroke-linecap:round;stroke-linejoin:round;paint-order:stroke fill markers;stop-color:#000000"
         d="m 537.71358,598.31398 c 0.0504,-13.95076 -11.56414,-28.43957 -25.16885,-25.35126 -61.24712,13.90323 20.11818,77.34194 25.16885,25.35126 z"
         sodipodi:nodetypes="csc" />
    </clipPath>
    <rect
       x="340.72177"
       y="583.96313"
       width="212.89365"
       height="57.016869"
       id="rect1042" />
    <filter
       inkscape:collect="always"
       style="color-interpolation-filters:sRGB"
       id="filter921"
       x="-0.0076858448"
       y="-0.0080213513"
       width="1.0153717"
       height="1.0160427">
      <feGaussianBlur
         inkscape:collect="always"
         stdDeviation="0.13301813"
         id="feGaussianBlur923" />
    </filter>
  </defs>
  <g
     inkscape:label="Layer 1"
     inkscape:groupmode="layer"
     id="layer1"
     transform="translate(-89.310608,-133.86752)">
    <path
       id="path332"
       style="opacity:1;fill:#b3b3b3;fill-opacity:1;stroke:none;stroke-width:0.353127;stroke-linecap:square;stroke-dasharray:none;paint-order:stroke fill markers;filter:url(#filter921);stop-color:#000000"
       d="m 116.1532,135.0782 c -0.49966,0.002 -1.00676,0.0144 -1.26607,0.0351 -0.88991,0.0714 -1.77551,0.19369 -2.59209,0.3576 -0.24161,0.0485 -0.44307,0.0879 -0.44752,0.0879 -0.004,0 -0.006,1.74462 -0.003,3.87677 l 0.005,3.87676 0.13798,0.0367 c 0.95757,0.2567 2.03204,0.61413 2.62,0.87127 0.0837,0.0366 0.1582,0.0675 0.16536,0.0682 0.007,7.5e-4 0.0397,-0.0676 0.0718,-0.15141 0.0589,-0.1535 3.44153,-8.88388 3.45767,-8.924 0.009,-0.0221 -0.32945,-0.0628 -0.92707,-0.11111 -0.22949,-0.0186 -0.72197,-0.026 -1.22164,-0.0238 z m 2.67943,0.19585 -1.7756,4.58164 c -0.97663,2.51989 -1.78063,4.59583 -1.78646,4.61315 -0.008,0.0239 0.0268,0.0482 0.14263,0.10129 0.73014,0.33459 1.51931,0.75736 2.17764,1.16633 0.16229,0.10082 0.30479,0.18396 0.31678,0.18449 0.0155,6.8e-4 5.98663,-6.52886 7.12205,-7.78816 l 0.0842,-0.0935 -0.25167,-0.19534 c -1.38061,-1.07194 -2.97584,-1.84877 -4.71495,-2.29598 -0.36969,-0.0951 -1.10616,-0.25224 -1.25677,-0.2682 z m -7.50445,0.40566 -0.33745,0.0884 c -1.49099,0.3891 -2.97503,0.91511 -4.40025,1.56011 -0.65453,0.29622 -0.77199,0.35478 -0.76223,0.37982 0.005,0.013 0.44976,1.16102 0.98806,2.55075 0.53829,1.38973 0.98055,2.52905 0.98288,2.53215 0.002,0.003 0.23767,0.0138 0.52297,0.0238 0.79721,0.0279 1.44178,0.0939 2.2195,0.22738 0.22171,0.038 0.47417,0.0855 0.56069,0.10542 0.0865,0.0199 0.17279,0.0375 0.19172,0.0387 0.0327,0.002 0.0341,-0.18892 0.0341,-3.75222 z m -5.97018,2.24173 c -0.008,-0.0114 -0.70441,0.35283 -1.18753,0.62167 -1.06152,0.59068 -2.15877,1.28589 -3.19773,2.02623 l -0.37569,0.2682 0.21859,0.23978 c 0.12025,0.13189 0.71859,0.78878 1.32963,1.45986 0.61105,0.67108 1.11321,1.2202 1.1157,1.22059 0.002,4.1e-4 0.0951,-0.0398 0.20619,-0.0894 1.04093,-0.4644 2.17501,-0.73473 3.49487,-0.83354 0.15625,-0.0117 0.28509,-0.0229 0.28681,-0.0253 0.003,-0.004 -1.88079,-4.87436 -1.89084,-4.88807 z m 20.14554,0.47335 c -0.009,0.003 -1.62179,1.76631 -3.58324,3.91811 l -3.5662,3.91242 0.20826,0.14573 c 0.7276,0.50892 1.42247,1.08017 2.12545,1.74821 l 0.22531,0.21446 3.05821,-1.52342 c 1.68204,-0.83774 3.60232,-1.793 4.26744,-2.12287 0.66513,-0.32987 1.21291,-0.60263 1.21698,-0.60616 0.0208,-0.0181 -0.41394,-0.94448 -0.67851,-1.44591 -0.67407,-1.27751 -1.42187,-2.34453 -2.35334,-3.35793 -0.29347,-0.31928 -0.89126,-0.8925 -0.92036,-0.88264 z m -25.33902,2.7771 c -0.0469,0.018 -0.695938,0.53205 -1.153865,0.91363 -1.018141,0.84836 -1.89657,1.6697 -2.777608,2.59726 l -0.42013,0.44235 1.991093,0.99684 c 1.095213,0.54837 2.000855,0.99778 2.012225,0.99839 0.0114,6e-4 0.041,-0.0411 0.0656,-0.0925 0.0907,-0.18888 0.401215,-0.69023 0.578255,-0.93328 0.37194,-0.51063 0.86331,-1.03072 1.32136,-1.39836 0.22491,-0.18052 0.70498,-0.51218 0.89866,-0.62115 l 0.11162,-0.0631 -1.29967,-1.42523 c -0.85797,-0.94086 -1.30924,-1.42193 -1.32756,-1.4149 z m 29.47779,3.3972 c -0.0443,0.0102 -8.34472,4.15172 -8.34472,4.16357 0,0.006 0.0791,0.10192 0.1757,0.21239 0.75582,0.86433 1.32554,1.70418 1.77457,2.61535 0.15745,0.31949 0.18173,0.35779 0.21963,0.34985 0.0234,-0.005 1.7943,-0.17038 3.93567,-0.36742 2.14138,-0.19705 3.8957,-0.35945 3.89847,-0.36122 0.009,-0.006 -0.11235,-0.81708 -0.19275,-1.28778 -0.30971,-1.81319 -0.74151,-3.45271 -1.31155,-4.97902 -0.0813,-0.21778 -0.14008,-0.34917 -0.15502,-0.34572 z m -34.18596,0.95757 -0.07855,0.0894 c -1.109459,1.26041 -2.197015,2.77111 -2.995166,4.15995 -0.231094,0.40212 -0.631333,1.15068 -0.697632,1.30535 l -0.03876,0.0904 0.06356,0.001 c 0.03476,4.7e-4 1.611553,0.14562 3.504179,0.32246 1.892625,0.17683 3.468787,0.32235 3.502628,0.32349 l 0.06149,0.002 0.01344,-0.28991 c 0.04976,-1.07074 0.189008,-1.97733 0.436661,-2.84633 0.0919,-0.3223 0.222052,-0.70114 0.323976,-0.94207 0.0316,-0.0746 0.0551,-0.13794 0.0522,-0.14056 -0.003,-0.003 -0.937626,-0.47028 -2.07683,-1.03973 z m -4.010608,6.13761 c -0.03543,-10e-4 -0.126959,0.19312 -0.33848,0.71675 -0.849877,2.1039 -1.248513,4.20819 -1.172022,6.18464 0.01026,0.26496 0.02331,0.50538 0.02946,0.53433 l 0.01137,0.0527 0.09198,-0.0269 c 0.05069,-0.0148 2.136594,-0.60842 4.63486,-1.31878 2.498266,-0.71037 4.54822,-1.29701 4.555787,-1.3038 0.008,-0.007 0.005,-0.0521 -0.006,-0.10077 -0.0546,-0.24284 -0.200039,-1.08693 -0.260962,-1.51412 -0.108551,-0.76115 -0.170006,-1.43309 -0.204639,-2.23139 l -0.01395,-0.31419 -3.647322,-0.339 c -2.006184,-0.18626 -3.662341,-0.33898 -3.679879,-0.33951 z m 39.877598,0.0388 c -0.021,0 -1.75594,0.15931 -3.85506,0.35398 -2.09913,0.19467 -3.82311,0.35347 -3.83078,0.35347 -0.008,0 0.0331,0.13972 0.0904,0.31005 0.39775,1.18248 0.52363,2.4022 0.37,3.58635 -0.0169,0.13028 -0.0279,0.23914 -0.0243,0.24236 0.004,0.003 1.49737,0.4301 3.3197,0.94826 l 3.31349,0.94207 0.0341,-0.12868 c 0.0646,-0.24457 0.2498,-1.0937 0.3178,-1.45624 0.22256,-1.18645 0.34441,-2.2996 0.38913,-3.55896 0.0226,-0.63686 0.022,-0.67367 -0.0217,-1.10071 -0.0249,-0.24293 -0.0499,-0.45271 -0.0553,-0.46663 -0.005,-0.0139 -0.0265,-0.0253 -0.0475,-0.0253 z m -31.940632,5.3144 c -10e-4,-0.002 -2.085995,0.58832 -4.632258,1.3131 -2.546264,0.72477 -4.649283,1.32294 -4.673617,1.32912 -0.0574,0.0146 -0.05727,0.0263 0.01602,0.4625 0.389614,2.31896 1.453223,4.45522 3.15898,6.3469 l 0.1726,0.19172 0.875399,-0.66043 c 0.481493,-0.36339 2.128076,-1.60669 3.659208,-2.76314 l 2.78425,-2.10271 -0.16226,-0.32608 c -0.19454,-0.39178 -0.36234,-0.80553 -0.49971,-1.23041 -0.154764,-0.47867 -0.398753,-1.35076 -0.555481,-1.98593 -0.0774,-0.31363 -0.141781,-0.57218 -0.143131,-0.57464 z m 24.581392,0.0424 -0.0558,0.21705 c -0.28251,1.10669 -0.86217,2.28052 -1.64435,3.32899 -0.0989,0.13255 -0.17933,0.24724 -0.1788,0.25528 4.4e-4,0.008 1.29894,0.99461 2.88562,2.19212 1.58666,1.19751 2.88634,2.17739 2.88819,2.17764 0.002,2.5e-4 0.0868,-0.1431 0.18913,-0.31884 0.86031,-1.47718 1.58904,-3.0844 2.13786,-4.71341 0.14223,-0.42217 0.39409,-1.24557 0.38396,-1.25574 -0.003,-0.003 -1.49074,-0.42789 -3.30575,-0.94412 z m -2.20245,4.22714 c -0.014,-0.005 -0.10523,0.0826 -0.20929,0.20257 -0.27512,0.31724 -1.10379,1.1381 -1.48363,1.46968 -0.35886,0.31325 -0.86637,0.72486 -1.22473,0.99322 -0.15644,0.11715 -0.21837,0.1749 -0.21033,0.19585 0.006,0.0163 0.96844,1.57562 2.13837,3.4649 l 2.12752,3.43494 0.0982,-0.0816 c 1.4278,-1.18367 2.83966,-2.73798 3.99149,-4.39508 0.22361,-0.32171 0.6014,-0.8945 0.59376,-0.89969 -0.002,-10e-4 -1.30622,-0.98575 -2.89957,-2.18849 -1.59334,-1.20275 -2.90813,-2.19101 -2.92178,-2.19625 z m -20.76359,0.31212 c -0.01,0.003 -1.635479,1.22671 -3.612112,2.7187 l -3.593579,2.71301 0.179834,0.18345 c 0.660791,0.6739 1.7782,1.56776 2.840653,2.27222 0.875163,0.58027 1.62892,1.0176 2.677843,1.55391 0.308199,0.15759 0.572801,0.28428 0.588031,0.28163 0.0245,-0.004 4.15117,-6.64192 4.15117,-6.67711 0,-0.008 -0.051,-0.044 -0.11317,-0.0806 -0.20621,-0.12134 -0.66064,-0.42637 -0.88005,-0.59118 -0.80884,-0.60757 -1.51759,-1.34322 -2.04897,-2.127 -0.0943,-0.13912 -0.17961,-0.25038 -0.18965,-0.24702 z m 17.1943,2.83962 c -0.009,-0.009 -0.13441,0.0474 -0.27905,0.12558 -0.97889,0.52931 -2.17222,0.9822 -3.36828,1.27795 -0.1721,0.0426 -0.31693,0.0808 -0.32142,0.0853 -0.006,0.006 1.55514,8.40824 1.59783,8.59792 l 0.009,0.0419 0.1726,-0.0377 c 1.63187,-0.35741 3.43599,-1.1219 5.02967,-2.13114 0.54311,-0.34394 1.44436,-0.98724 1.44436,-1.03094 0,-0.0186 -4.25442,-6.89793 -4.28501,-6.92878 z m -13.49944,0.46044 c -0.0458,0.0459 -4.11738,6.65529 -4.10621,6.66574 0.0219,0.0204 0.63334,0.28878 1.12345,0.49299 1.47635,0.61516 3.09856,1.17644 4.7904,1.65779 0.3569,0.10154 0.71133,0.20227 0.78704,0.22375 0.0757,0.0215 0.14264,0.04 0.14934,0.0408 0.0155,0.002 -0.0544,0.37014 0.76378,-4.00854 0.38885,-2.08107 0.7033,-3.78967 0.69866,-3.79719 -0.005,-0.007 -0.0639,-0.0195 -0.13177,-0.0269 -0.31649,-0.0343 -0.93226,-0.15288 -1.40147,-0.26975 -0.88136,-0.21953 -1.60684,-0.47793 -2.35489,-0.83819 -0.17036,-0.082 -0.31354,-0.14535 -0.31833,-0.14056 z m 8.98033,1.13171 c -0.0102,0.001 -0.0233,0.004 -0.0403,0.008 -0.29595,0.0652 -1.15717,0.17367 -1.73427,0.21859 -0.42909,0.0335 -1.72277,0.0328 -2.13992,-10e-4 -0.17645,-0.0143 -0.324,-0.0222 -0.32814,-0.0181 -0.004,0.004 -0.33572,1.7634 -0.73639,3.90983 -0.40068,2.14644 -0.73138,3.91696 -0.73536,3.93413 -0.008,0.0337 0.18589,0.0861 1.21595,0.33073 1.1213,0.26624 1.93648,0.39311 2.91042,0.45269 0.35141,0.0215 1.45283,0.0104 1.79937,-0.0181 0.4912,-0.0404 1.40299,-0.15811 1.42937,-0.18448 0.005,-0.005 -1.53702,-8.29535 -1.59784,-8.58863 -0.008,-0.0363 -0.0122,-0.0468 -0.0429,-0.0434 z"
       transform="matrix(1.4158484,0,0,1.4159855,-37.139674,-56.94865)" />
    <g
       id="g1695"
       transform="matrix(1.4158484,0,0,1.4159855,-37.139674,-55.94865)"
       style="stroke-width:0.706256">
      <path
         style="opacity:1;fill:#57bf36;fill-opacity:1;stroke:none;stroke-width:1.33465;stroke-linecap:square;stroke-dasharray:none;paint-order:stroke fill markers;stop-color:#000000"
         d="m 29.819314,41.818387 -7.526167,-3.76835 1.587605,-1.671447 c 3.329912,-3.505764 6.650036,-6.610414 10.498132,-9.816807 1.730858,-1.442223 4.184333,-3.384172 4.361471,-3.452146 0.06924,-0.02657 1.774584,1.790749 5.017325,5.346756 l 4.912438,5.387006 -0.422803,0.237891 c -0.732006,0.411864 -2.545212,1.665869 -3.395274,2.348156 -1.731213,1.389527 -3.588552,3.354906 -4.994342,5.284859 -0.669123,0.918612 -1.843799,2.813748 -2.186545,3.527608 -0.09322,0.19416 -0.204634,0.351174 -0.247584,0.348921 -0.04295,-0.0023 -3.464864,-1.699853 -7.604256,-3.772447 z"
         id="path2896"
         transform="matrix(0.26458333,0,0,0.26458333,89.29936,134.4764)" />
      <path
         style="opacity:1;fill:#2c67a2;fill-opacity:1;stroke:none;stroke-width:1.33465;stroke-linecap:square;stroke-dasharray:none;paint-order:stroke fill markers;stop-color:#000000"
         d="m 46.226645,28.269125 c -2.309474,-2.53637 -4.570896,-5.019438 -5.025381,-5.517929 l -0.826337,-0.906346 1.420892,-1.012492 c 3.926801,-2.79814 8.073677,-5.425913 12.085721,-7.658424 1.825962,-1.01606 4.455293,-2.393379 4.486849,-2.350339 0.03799,0.05181 7.159763,18.458358 7.148081,18.474532 -0.0065,0.009 -0.494946,0.05247 -1.085492,0.09667 -4.988482,0.37343 -9.273639,1.395732 -13.207875,3.150977 -0.419811,0.187297 -0.77097,0.339277 -0.780353,0.337734 -0.0094,-0.0015 -1.906631,-2.078017 -4.216105,-4.614388 z"
         id="path2898"
         transform="matrix(0.26458333,0,0,0.26458333,89.29936,134.4764)" />
      <path
         style="opacity:1;fill:#23446a;fill-opacity:1;stroke:none;stroke-width:1.33465;stroke-linecap:square;stroke-dasharray:none;paint-order:stroke fill markers;stop-color:#000000"
         d="m 80.079116,30.576275 c -0.327005,-0.07526 -1.280151,-0.254503 -2.118102,-0.398319 -2.939412,-0.504491 -5.376076,-0.754094 -8.389177,-0.859358 -1.078304,-0.03767 -1.96779,-0.07808 -1.976635,-0.08979 -0.0088,-0.01171 -1.680683,-4.318815 -3.715194,-9.571336 -2.03451,-5.252521 -3.714781,-9.590209 -3.733934,-9.639306 C 60.109156,9.9235296 60.554037,9.7018654 63.02786,8.5823016 68.414509,6.1444969 74.023685,4.1554645 79.658939,2.6848672 L 80.933788,2.3521774 V 16.541617 c 0,13.467625 -0.0066,14.188984 -0.130058,14.180466 -0.07153,-0.0049 -0.397609,-0.07055 -0.724614,-0.145808 z"
         id="path2900"
         transform="matrix(0.26458333,0,0,0.26458333,89.29936,134.4764)" />
      <path
         style="opacity:1;fill:#e71c3a;fill-opacity:1;stroke:none;stroke-width:1.33465;stroke-linecap:square;stroke-dasharray:none;paint-order:stroke fill markers;stop-color:#000000"
         d="m 93.327087,34.630954 c -2.222215,-0.971863 -6.284431,-2.322412 -9.9036,-3.292611 l -0.520235,-0.139461 -0.01877,-14.651869 c -0.01032,-8.0585279 -0.005,-14.6518692 0.01183,-14.6518692 0.01682,0 0.777752,-0.14998 1.69095,-0.3332889 3.08628,-0.61951798 6.434894,-1.08120165 9.798331,-1.35092571 1.960125,-0.15718837 7.666707,-0.18323239 9.401397,-0.0429066 2.25875,0.18271886 3.53814,0.33585264 3.50451,0.41946605 C 107.2305,0.7391357 94.444526,33.736818 94.221955,34.316967 c -0.121534,0.316786 -0.243126,0.573651 -0.270205,0.57081 -0.02708,-0.0028 -0.308177,-0.11841 -0.624664,-0.256823 z"
         id="path2902"
         transform="matrix(0.26458333,0,0,0.26458333,89.29936,134.4764)" />
      <path
         style="opacity:1;fill:#dfb21f;fill-opacity:1;stroke:none;stroke-width:1.33465;stroke-linecap:square;stroke-dasharray:none;paint-order:stroke fill markers;stop-color:#000000"
         d="m 104.60406,40.361416 c -2.48819,-1.545725 -5.472337,-3.143804 -8.23193,-4.408392 -0.437735,-0.200592 -0.567799,-0.293436 -0.537467,-0.383659 0.02201,-0.06546 3.06007,-7.911413 6.751247,-17.43544 l 6.71123,-17.31641199 0.2177,0.0230756 c 0.56925,0.0603389 3.35393,0.65457899 4.75118,1.01388609 6.57302,1.6902625 12.60227,4.6262288 17.82035,8.6776783 l 0.94985,0.737488 -0.31814,0.352843 c -4.29134,4.759537 -26.85791,29.437923 -26.91647,29.435354 -0.0453,-0.002 -0.58417,-0.315376 -1.19755,-0.696422 z"
         id="path2904"
         transform="matrix(0.26458333,0,0,0.26458333,89.29936,134.4764)" />
      <path
         style="opacity:1;fill:#46a339;fill-opacity:1;stroke:none;stroke-width:1.33465;stroke-linecap:square;stroke-dasharray:none;paint-order:stroke fill markers;stop-color:#000000"
         d="m 116.30774,49.367048 c -2.65695,-2.524911 -5.28189,-4.684502 -8.03187,-6.607984 L 107.48808,42.208038 120.967,27.421165 c 7.4134,-8.13278 13.50793,-14.796708 13.54339,-14.808728 0.11,-0.03729 2.36872,2.129273 3.47788,3.33598 3.52053,3.83017 6.34685,7.862976 8.89451,12.69138 0.99996,1.895162 2.64305,5.397493 2.56428,5.465904 -0.0154,0.01336 -2.08477,1.04437 -4.59862,2.291123 -2.51385,1.246752 -9.77206,4.857391 -16.12936,8.023642 l -11.55873,5.75682 z"
         id="path2906"
         transform="matrix(0.26458333,0,0,0.26458333,89.29936,134.4764)" />
      <path
         style="opacity:1;fill:#c51c2e;fill-opacity:1;stroke:none;stroke-width:1.33465;stroke-linecap:square;stroke-dasharray:none;paint-order:stroke fill markers;stop-color:#000000"
         d="m 125.9846,62.372347 c -1.69712,-3.443796 -3.8504,-6.616946 -6.70702,-9.883685 -0.36513,-0.417555 -0.66387,-0.779032 -0.66387,-0.803283 0,-0.0448 31.37093,-15.697222 31.5382,-15.735884 0.0565,-0.01307 0.27961,0.483404 0.58701,1.306495 2.15447,5.768748 3.78677,11.964941 4.95734,18.817971 0.30387,1.778996 0.76238,4.844737 0.72788,4.866793 -0.0105,0.0067 -6.64089,0.621494 -14.73427,1.366231 -8.09338,0.744736 -14.78762,1.369241 -14.8761,1.387788 -0.14323,0.03003 -0.23409,-0.114883 -0.82917,-1.322426 z"
         id="path2908"
         transform="matrix(0.26458333,0,0,0.26458333,89.29936,134.4764)" />
      <path
         style="opacity:1;fill:#ee3127;fill-opacity:1;stroke:none;stroke-width:1.33465;stroke-linecap:square;stroke-dasharray:none;paint-order:stroke fill markers;stop-color:#000000"
         d="m 141.65271,84.81181 c -6.88755,-1.958429 -12.53385,-3.570735 -12.54734,-3.582903 -0.0135,-0.01217 0.0277,-0.424988 0.0916,-0.917377 0.58066,-4.475509 0.10519,-9.084953 -1.39812,-13.55416 -0.21655,-0.643792 -0.36999,-1.17053 -0.34099,-1.17053 0.029,0 6.54396,-0.601987 14.47768,-1.337749 7.93372,-0.735762 14.48993,-1.337749 14.56935,-1.337749 0.0794,0 0.16093,0.04304 0.18111,0.09566 0.0202,0.05261 0.11367,0.846899 0.20774,1.765085 0.16534,1.613999 0.16809,1.752095 0.0826,4.159128 -0.169,4.759792 -0.62882,8.967585 -1.46999,13.451805 -0.25703,1.370233 -0.95801,4.578696 -1.2023,5.503066 l -0.12857,0.486509 z"
         id="path2910"
         transform="matrix(0.26458333,0,0,0.26458333,89.29936,134.4764)" />
      <path
         style="opacity:1;fill:#54c3e5;fill-opacity:1;stroke:none;stroke-width:1.33465;stroke-linecap:square;stroke-dasharray:none;paint-order:stroke fill markers;stop-color:#000000"
         d="m 132.49582,105.81047 c -5.99687,-4.52603 -10.90473,-8.254018 -10.90637,-8.284421 -0.002,-0.0304 0.30282,-0.465171 0.67656,-0.966152 2.95626,-3.962711 5.14767,-8.398646 6.2154,-12.581423 l 0.2093,-0.819921 12.47244,3.547505 c 6.85985,1.951129 12.48242,3.557511 12.4946,3.569738 0.0383,0.03842 -0.9125,3.150202 -1.45007,4.745821 -2.07428,6.156903 -4.82969,12.230743 -8.08125,17.813763 -0.38685,0.66423 -0.70873,1.20691 -0.71529,1.20596 -0.007,-9.4e-4 -4.91845,-3.70483 -10.91532,-8.23087 z"
         id="path2912"
         transform="matrix(0.26458333,0,0,0.26458333,89.29936,134.4764)" />
      <path
         style="opacity:1;fill:#f5be0e;fill-opacity:1;stroke:none;stroke-width:1.33465;stroke-linecap:square;stroke-dasharray:none;paint-order:stroke fill markers;stop-color:#000000"
         d="m 116.62767,123.04428 c -4.4218,-7.1406 -8.05902,-13.03341 -8.0827,-13.09514 -0.0304,-0.0792 0.20395,-0.29721 0.79521,-0.73998 1.35445,-1.01427 3.27227,-2.56948 4.62857,-3.75344 1.43561,-1.25319 4.5681,-4.35628 5.60793,-5.555308 0.39331,-0.453528 0.73661,-0.786669 0.78967,-0.766308 0.0516,0.01981 5.02103,3.755316 11.04313,8.301126 6.02209,4.54581 10.95422,8.26846 10.96028,8.27256 0.0289,0.0196 -1.40032,2.18312 -2.24548,3.39902 -4.35338,6.26305 -9.68825,12.138 -15.08466,16.61173 l -0.37231,0.30865 z"
         id="path2914"
         transform="matrix(0.26458333,0,0,0.26458333,89.29936,134.4764)" />
      <path
         style="opacity:1;fill:#a01641;fill-opacity:1;stroke:none;stroke-width:1.33465;stroke-linecap:square;stroke-dasharray:none;paint-order:stroke fill markers;stop-color:#000000"
         d="m 97.915923,149.1696 c -0.161344,-0.71692 -6.061822,-32.47118 -6.038102,-32.4949 0.017,-0.017 0.563124,-0.16251 1.213603,-0.32336 4.520546,-1.11782 9.030276,-2.82859 12.730016,-4.82914 0.54669,-0.29561 1.02136,-0.50986 1.05484,-0.47611 0.11563,0.11657 16.19659,26.11859 16.19659,26.18899 0,0.16517 -3.40622,2.59634 -5.45892,3.89627 -6.02336,3.81445 -12.84361,6.70415 -19.01131,8.05498 l -0.650872,0.14255 z"
         id="path2916"
         transform="matrix(0.26458333,0,0,0.26458333,89.29936,134.4764)" />
      <path
         style="opacity:1;fill:#f15624;fill-opacity:1;stroke:none;stroke-width:1.33465;stroke-linecap:square;stroke-dasharray:none;paint-order:stroke fill markers;stop-color:#000000"
         d="m 83.795084,150.4551 c -3.681005,-0.22515 -6.761262,-0.70413 -10.999266,-1.71038 -3.893155,-0.92438 -4.6269,-1.12409 -4.597432,-1.25137 0.01503,-0.0649 1.266356,-6.75557 2.780721,-14.86809 1.514364,-8.11253 2.766183,-14.76284 2.78182,-14.77848 0.01564,-0.0156 0.574089,0.0159 1.241006,0.07 1.576612,0.12796 6.465359,0.13059 8.087117,0.004 2.181164,-0.16978 5.436166,-0.58053 6.55471,-0.82713 0.257214,-0.0567 0.277309,-0.0481 0.315284,0.13502 0.229868,1.10844 6.058108,32.44127 6.038136,32.46124 -0.09972,0.0997 -3.545379,0.54415 -5.401874,0.69675 -1.309757,0.10765 -5.472038,0.14934 -6.800222,0.0681 z"
         id="path2918"
         transform="matrix(0.26458333,0,0,0.26458333,89.29936,134.4764)" />
      <path
         style="opacity:1;fill:#dc0e67;fill-opacity:1;stroke:none;stroke-width:1.33465;stroke-linecap:square;stroke-dasharray:none;paint-order:stroke fill markers;stop-color:#000000"
         d="m 65.661159,146.95566 c -0.28613,-0.0812 -1.623878,-0.46171 -2.972775,-0.84549 -6.39438,-1.81926 -12.526083,-3.94141 -18.106004,-6.26641 -1.85237,-0.77183 -4.163659,-1.78598 -4.246311,-1.86319 -0.04223,-0.0395 15.345654,-25.01927 15.518933,-25.19255 0.01808,-0.0181 0.559678,0.22083 1.203548,0.53092 2.827285,1.36161 5.568746,2.33709 8.899886,3.1668 1.773393,0.44172 4.100727,0.88959 5.296918,1.01935 0.256387,0.0278 0.480509,0.0738 0.498048,0.10216 0.01754,0.0284 -1.170563,6.48697 -2.640227,14.35243 -3.092252,16.54936 -2.827056,15.15712 -2.885711,15.1496 -0.02534,-0.003 -0.280175,-0.0724 -0.566305,-0.15362 z"
         id="path2920"
         transform="matrix(0.26458333,0,0,0.26458333,89.29936,134.4764)" />
      <path
         style="opacity:1;fill:#f7921a;fill-opacity:1;stroke:none;stroke-width:1.33465;stroke-linecap:square;stroke-dasharray:none;paint-order:stroke fill markers;stop-color:#000000"
         d="m 36.193531,135.99818 c -3.96455,-2.027 -6.814233,-3.6807 -10.121936,-5.87386 -4.015577,-2.66252 -8.238543,-6.04029 -10.736024,-8.58729 l -0.680253,-0.69374 13.583309,-10.25276 c 7.47082,-5.63902 13.614364,-10.26312 13.65232,-10.27577 0.03796,-0.0127 0.360675,0.4072 0.717152,0.933 2.008367,2.96233 4.68624,5.74237 7.743271,8.03868 0.829256,0.62291 2.546408,1.77738 3.325791,2.23599 0.235035,0.13831 0.427337,0.27533 0.427337,0.30451 0,0.13301 -15.595508,25.22006 -15.688154,25.23608 -0.05759,0.01 -1.057857,-0.46922 -2.222813,-1.06484 z"
         id="path2922"
         transform="matrix(0.26458333,0,0,0.26458333,89.29936,134.4764)" />
      <path
         style="opacity:1;fill:#c0921d;fill-opacity:1;stroke:none;stroke-width:1.33465;stroke-linecap:square;stroke-dasharray:none;paint-order:stroke fill markers;stop-color:#000000"
         d="M 12.612479,118.72158 C 6.1655142,111.57193 2.1473281,103.49741 0.67476868,94.732823 0.39777713,93.084185 0.39619933,93.039425 0.61313476,92.984333 0.70510498,92.960978 8.654276,90.700616 18.27796,87.961308 c 9.623683,-2.739307 17.501807,-4.972913 17.506941,-4.963568 0.0051,0.0093 0.248671,0.986858 0.54119,2.172252 0.592408,2.400649 1.514334,5.697115 2.099281,7.506256 0.519215,1.605842 1.154709,3.169459 1.889971,4.650231 l 0.611509,1.23154 -10.521745,7.946901 c -5.78696,4.3708 -12.010689,9.07063 -13.830508,10.44407 l -3.308765,2.49716 z"
         id="path2924"
         transform="matrix(0.26458333,0,0,0.26458333,89.29936,134.4764)" />
      <path
         style="opacity:1;fill:#3c803e;fill-opacity:1;stroke:none;stroke-width:1.33465;stroke-linecap:square;stroke-dasharray:none;paint-order:stroke fill markers;stop-color:#000000"
         d="M 0.19015978,90.868597 C 0.16693141,90.759162 0.11621562,89.850254 0.07745803,88.848801 -0.21164228,81.378768 1.295508,73.427113 4.5076417,65.475361 c 0.7994518,-1.979072 1.1463057,-2.713052 1.2802312,-2.709107 0.066284,0.002 6.3243261,0.579529 13.9067591,1.283502 l 13.786242,1.279951 0.05152,1.187617 c 0.130898,3.017197 0.364093,5.556976 0.774363,8.433756 0.230262,1.614573 0.78028,4.804768 0.986625,5.722591 0.04135,0.18394 0.05178,0.355434 0.02317,0.381098 -0.02861,0.02566 -7.777515,2.243352 -17.219791,4.928195 -9.4422749,2.684842 -17.32450772,4.927223 -17.51607238,4.983068 l -0.34829945,0.101536 z"
         id="path2926"
         transform="matrix(0.26458333,0,0,0.26458333,89.29936,134.4764)" />
      <path
         style="opacity:1;fill:#4595d7;fill-opacity:1;stroke:none;stroke-width:1.33465;stroke-linecap:square;stroke-dasharray:none;paint-order:stroke fill markers;stop-color:#000000"
         d="M 20.029069,62.126503 C 12.87583,61.458141 6.9156764,60.909819 6.7842832,60.908009 L 6.5453864,60.90472 6.6921097,60.562428 C 6.942688,59.977852 8.4542392,57.147871 9.327665,55.628045 12.344303,50.378869 16.455494,44.669322 20.648729,39.905555 l 0.296627,-0.336986 7.828465,3.913155 c 4.305657,2.152236 7.837446,3.921258 7.84842,3.931161 0.01098,0.0099 -0.07766,0.248706 -0.196958,0.530673 -0.385272,0.910578 -0.877658,2.341639 -1.224809,3.559762 -0.936032,3.28445 -1.461394,6.710835 -1.649466,10.757728 l -0.05094,1.096211 -0.232553,-0.0078 c -0.127904,-0.0043 -6.085203,-0.554618 -13.238442,-1.22298 z"
         id="path2928"
         transform="matrix(0.26458333,0,0,0.26458333,89.29936,134.4764)" />
    </g>
  </g>
</svg>
