<?xml version="1.0" encoding="UTF-8" standalone="no"?>
<svg
   width="49mm"
   height="49mm"
   version="1.1"
   viewBox="0 0 49 49"
   id="svg3"
   sodipodi:docname="tutorial_qr-code.svg"
   xml:space="preserve"
   inkscape:version="1.2.2 (1:1.2.2+202212051551+b0a8486541)"
   xmlns:inkscape="http://www.inkscape.org/namespaces/inkscape"
   xmlns:sodipodi="http://sodipodi.sourceforge.net/DTD/sodipodi-0.dtd"
   xmlns="http://www.w3.org/2000/svg"
   xmlns:svg="http://www.w3.org/2000/svg"><defs
     id="defs7"><clipPath
       clipPathUnits="userSpaceOnUse"
       id="clipPath370"><path
         id="path372"
         d="m 3.999756,3.999756 v 1.0004557 0.999939 0.9999388 0.9999389 0.999939 0.999939 0.9999386 h 1.0004557 0.999939 0.9999388 0.9999389 0.999939 0.999939 0.9999386 V 9.9999064 8.9999674 8.0000284 7.0000895 6.0001507 5.0002117 3.999756 H 9.9999064 8.9999674 8.0000284 7.0000895 6.0001507 5.0002117 Z m 9.000484,0 v 1.0004557 h 0.999939 V 3.999756 Z m 3.999756,0 v 1.0004557 h 0.999939 V 3.999756 Z m 5.000212,0 v 1.0004557 0.999939 h 0.999938 v -0.999939 h 0.999939 v 0.999939 h 0.999939 V 5.0002117 3.999756 h -0.999939 -0.999939 z m 1.999877,2.0003947 h -0.999939 v 0.9999388 h -0.999938 v 0.9999389 h 0.999938 v 0.999939 h 0.999939 0.999939 v 0.999939 h 0.999939 v 0.9999386 h 0.999938 V 9.9999064 8.9999674 h -0.999938 v -0.999939 h 0.999938 V 7.0000895 h -0.999938 -0.999939 -0.999939 z m 2.999816,1.9998777 v 0.999939 h 0.99994 v -0.999939 z m 0.99994,0 h 0.99994 V 7.0000895 h -0.99994 z m 0.99994,0 v 0.999939 h 1.000455 v -0.999939 z m 1.000455,0.999939 v 0.999939 0.9999386 h 0.99994 V 9.9999064 h 0.999937 v 0.9999386 h -0.999937 v 0.999939 h -0.99994 -1.000455 v 1.000456 h 1.000455 0.99994 0.999937 v -1.000456 h 0.99994 V 10.999845 9.9999064 h 0.99994 V 10.999845 H 34.99993 V 9.9999064 8.9999674 h 0.99994 v 0.999939 0.9999386 h -0.99994 v 0.999939 1.000456 h -0.999937 v 0.999939 0.999939 0.999939 h 0.999937 v 0.999939 h -0.999937 v 0.999939 h -0.99994 v -0.999939 h -0.99994 v 0.999939 h -0.999937 v 0.999939 0.999939 h 0.999937 v 0.999939 h -0.999937 v 1.000456 h -0.99994 v -1.000456 h 0.99994 v -0.999939 h -0.99994 -1.000455 v -0.999939 h -0.99994 v 0.999939 0.999939 h 0.99994 v 1.000456 h -0.99994 v 0.999938 h 0.99994 v 0.999939 h 1.000455 v -0.999939 h 0.99994 v 0.999939 h -0.99994 v 0.999939 h 0.99994 0.999937 v -0.999939 h 0.99994 v -0.999939 h 0.99994 v -0.999938 h 0.999937 0.99994 v 0.999938 h 0.99994 0.999937 V 22.000208 H 36.99981 v -1.000456 h 0.999937 V 19.999813 H 36.99981 35.99987 v 0.999939 h -0.99994 -0.999937 v -0.999939 h -0.99994 v -0.999939 h 0.99994 0.999937 v -0.999939 h 0.99994 v 0.999939 h 0.99994 0.999937 V 17.999935 H 36.99981 v -0.999939 h -0.99994 v -0.999939 h 0.99994 v -0.999939 -0.999939 h 0.999937 v 0.999939 0.999939 h 1.000455 0.99994 v -0.999939 -0.999939 h 0.99994 V 13.00024 h 0.999937 v 0.999939 h 0.99994 V 13.00024 11.999784 h -0.99994 -0.999937 -0.99994 -0.99994 -1.000455 V 13.00024 H 36.99981 V 11.999784 10.999845 9.9999064 8.9999674 8.0000285 7.0000895 h -0.99994 v 0.999939 h -0.99994 v -0.999939 h 0.99994 V 6.0001507 h -0.99994 -0.999937 v 0.9999388 h -0.99994 V 6.0001507 5.0002117 h 0.99994 0.999937 0.99994 v 0.999939 h 0.99994 V 5.0002117 3.999756 h -0.99994 -0.99994 -0.999937 -0.99994 -0.99994 V 5.0002117 H 31.000176 V 3.999756 h -0.99994 -1.000455 v 1.0004557 h 1.000455 v 0.999939 h 0.99994 0.999937 v 0.9999388 0.999939 0.9999389 h -0.999937 z m 7.999511,8.9999676 h 1.000455 v 0.999939 h 0.99994 v -0.999939 h 0.99994 0.999937 v 0.999939 h 0.99994 v -0.999939 h 0.99994 0.999937 v -0.999939 -0.999939 -0.999939 h -0.999937 v 0.999939 0.999939 h -0.99994 v -0.999939 h -0.99994 v -0.999939 h -0.999937 v 0.999939 0.999939 h -0.99994 -0.99994 -1.000455 z m 5.000212,0.999939 v 0.999939 h -0.99994 v 0.999939 1.000456 h 0.99994 0.99994 0.999937 v -1.000456 h -0.999937 v -0.999939 h 0.999937 v -0.999939 h -0.999937 z m -0.99994,3.000334 h -0.999937 v -1.000456 h -0.99994 v -0.999939 h -0.99994 v 0.999939 h -1.000455 v 1.000456 h 1.000455 0.99994 v 0.999938 0.999939 h 0.99994 0.999937 v -0.999939 z m 0,1.999877 v 0.999939 h 0.99994 v 0.999939 h 0.99994 0.999937 v -0.999939 -0.999939 h -0.999937 -0.99994 z m 0,0.999939 h -0.999937 -0.99994 -0.99994 -1.000455 v 0.999939 H 36.99981 v -0.999939 -0.999939 h -0.99994 v -0.999939 h -0.99994 -0.999937 v 0.999939 h 0.999937 v 0.999939 h 0.99994 v 0.999939 0.999938 0.99994 h 0.99994 v -0.99994 h 0.999937 1.000455 v -0.999938 h 0.99994 v 0.999938 h -0.99994 v 0.99994 h 0.99994 0.99994 v 0.99994 h -0.99994 v 1.000455 0.99994 h 0.99994 v -0.99994 h 0.999937 v -1.000455 h 0.99994 v -0.99994 h -0.99994 v -0.99994 h -0.999937 v -0.999938 h 0.999937 z m 0.99994,2.999817 h 0.99994 v 0.99994 h 0.999937 v -0.99994 -0.99994 h -0.999937 -0.99994 z m -1.999877,3.000335 v 0.999937 0.99994 h 0.999937 v 0.99994 h -0.999937 v 0.999937 h -0.99994 v 0.99994 h -0.99994 v -0.99994 h 0.99994 v -0.999937 h 0.99994 v -0.99994 h -0.99994 -0.99994 -1.000455 -0.999937 -0.99994 v -0.99994 h 0.99994 0.999937 1.000455 0.99994 v -0.999937 h -0.99994 -1.000455 v -0.99994 h 1.000455 V 28.999781 H 37.999747 36.99981 v 1.000455 h -0.99994 v 0.99994 h -0.99994 v 0.999937 0.99994 0.99994 h 0.99994 v 0.999937 h 0.99994 v 0.99994 h -0.99994 -0.99994 v 0.99994 h 0.99994 v 0.999937 h -0.99994 -0.999937 v 1.000455 0.99994 h 0.999937 0.99994 v 0.99994 0.999937 h -0.99994 -0.999937 -0.99994 v -0.999937 h 0.99994 v -0.99994 h -0.99994 -0.99994 v -0.99994 -1.000455 h -0.999937 v 1.000455 h -0.99994 v 0.99994 h 0.99994 v 0.99994 h 0.999937 v 0.999937 h -0.999937 v -0.999937 h -0.99994 -1.000455 v 0.999937 0.99994 h 1.000455 0.99994 0.999937 0.99994 0.99994 v 0.99994 h 0.999937 v -0.99994 h 0.99994 v 0.99994 h 0.99994 v 0.999937 h 0.999937 v -0.999937 -0.99994 h 1.000455 0.99994 v 0.99994 h -0.99994 v 0.999937 h 0.99994 0.99994 0.999937 0.99994 v -0.999937 h -0.99994 v -0.99994 -0.99994 -0.999937 h -0.999937 v 0.999937 h -0.99994 v -0.999937 h 0.99994 v -0.99994 h 0.999937 v -0.99994 -1.000455 H 41.000082 V 36.99981 h 0.999937 0.99994 v -0.99994 h -0.99994 v -0.99994 h 0.99994 v -0.999937 -0.99994 -0.99994 h -0.99994 v -0.999937 z m 1.999877,5.999634 v 0.999937 h 0.99994 0.999937 V 36.99981 35.99987 34.99993 h -0.999937 v 0.99994 0.99994 z m -0.99994,3.000332 v 0.99994 h 0.99994 v -0.99994 z m 0.99994,3.999757 h 0.99994 v -0.99994 h -0.99994 z m -7.000089,0 h -0.99994 v 0.999937 h 0.99994 z m -1.999877,0 h -0.99994 v 0.999937 h 0.99994 z m -5.000212,-2.999817 v -0.99994 -0.99994 h -0.99994 -0.99994 v 0.99994 h 0.99994 v 0.99994 z m -0.99994,0 h -0.99994 v 0.999937 h 0.99994 z m -0.99994,0.999937 h -0.999938 v -0.999937 h 0.999938 v -0.99994 h -0.999938 -0.999939 v -0.99994 -1.000455 -0.999937 h -0.999939 -0.999939 -0.999938 v 0.999937 1.000455 h 0.999938 v -1.000455 h 0.999939 v 1.000455 0.99994 h -0.999939 -0.999938 v 0.99994 h 0.999938 0.999939 v 0.999937 0.99994 h -0.999939 v 0.99994 h 0.999939 0.999939 0.999939 v 0.999937 h 0.999938 0.99994 0.99994 1.000455 0.99994 0.999937 v -0.999937 h -0.999937 -0.99994 -1.000455 -0.99994 -0.99994 v -0.99994 z m -3.999755,1.99988 h -0.999938 v 0.999937 h 0.999938 z m 0,-0.99994 v -0.99994 h -0.999938 v 0.99994 z M 22.000208,36.99981 v -0.99994 h -1.000456 -0.999939 v -0.99994 h -0.999939 v -0.999937 h -0.999939 v -0.99994 h -0.999939 v 0.99994 h -0.999939 v -0.99994 -0.99994 h -0.999939 -0.999939 v -0.999937 h 0.999939 v -0.99994 H 14.000179 13.00024 v 0.99994 0.999937 0.99994 h 0.999939 0.999939 v 0.99994 H 14.000179 13.00024 v 0.999937 h 0.999939 0.999939 v 0.99994 0.99994 0.999937 H 14.000179 13.00024 v 1.000455 h -1.000456 v 0.99994 0.99994 0.999937 0.99994 h 1.000456 v 0.99994 h -1.000456 v 0.999937 h 1.000456 0.999939 v -0.999937 -0.99994 h 0.999939 v -0.99994 h -0.999939 v -0.999937 h 0.999939 v 0.999937 h 0.999939 v -0.999937 h 0.999939 v -0.99994 h -0.999939 -0.999939 v -0.99994 h 0.999939 0.999939 0.999939 V 37.999747 H 16.999996 16.000057 V 36.99981 35.99987 h 0.999939 v 0.99994 h 0.999939 v -0.99994 h 0.999939 v 0.99994 h 0.999939 0.999939 z m -3.000334,0 h -0.999939 v 0.999937 h 0.999939 z m 0,0.999937 v 1.000455 0.99994 h 0.999939 v -0.99994 h 0.999939 v -1.000455 h -0.999939 z m 0.999939,2.000395 v 0.99994 0.999937 h -0.999939 v 0.99994 h 0.999939 v 0.99994 h 0.999939 v -0.99994 -0.99994 -0.999937 -0.99994 z m -0.999939,2.999817 h -0.999939 v -0.99994 h -0.999939 -0.999939 v 0.99994 h -0.999939 v 0.99994 h 0.999939 v 0.999937 h 0.999939 v -0.999937 h 0.999939 0.999939 z m -0.999939,-0.99994 h 0.999939 v -0.999937 -0.99994 h -0.999939 v 0.99994 z M 13.00024,37.999747 V 36.99981 h 0.999939 V 35.99987 H 13.00024 v -0.99994 h -1.000456 v 0.99994 H 10.999845 9.9999064 V 34.99993 H 10.999845 V 33.999993 H 9.9999064 8.9999674 V 34.99993 H 8.0000285 v 0.99994 0.99994 h 0.9999389 0.999939 0.9999386 0.999939 v 0.999937 z M 8.0000284,34.99993 V 33.999993 H 7.0000895 V 34.99993 Z M 7.0000895,33.999993 v -0.99994 H 6.0001507 5.0002117 3.999756 v 0.99994 0.999937 0.99994 0.99994 h 1.0004557 v -0.99994 -0.99994 -0.999937 h 0.999939 z m 3.9997555,0 h 0.999939 1.000456 v -0.99994 h -1.000456 v -0.99994 H 10.999845 9.9999064 v 0.99994 h 0.9999386 z m -0.9999386,-1.99988 v -0.999937 h 0.9999386 v -0.99994 H 9.9999064 8.9999674 v 0.99994 H 8.0000285 v -0.99994 h -0.999939 v 0.99994 0.999937 h 0.999939 0.9999389 z M 8.0000285,30.000236 h 0.9999389 v -1.000455 h 0.999939 0.9999386 v 1.000455 h 0.999939 1.000456 v -1.000455 h -1.000456 v -0.99994 H 10.999845 9.9999064 v -0.99994 h -0.999939 v -0.999938 -0.999939 h -0.999939 v 0.999939 0.999938 H 7.0000895 V 25.999963 H 6.0001507 v -0.999939 -0.999939 h 0.9999388 v -0.999939 -0.999938 h 0.9999389 0.999939 V 20.999752 H 8.0000284 7.0000895 v -0.999939 h 0.9999389 v -0.999939 -0.999939 h 0.999939 v -0.999939 -0.999939 h 0.999939 V 15.000118 H 10.999845 V 14.000179 H 9.9999064 8.9999674 8.0000284 V 13.00024 h 0.999939 0.999939 0.9999386 V 11.999784 H 9.9999064 8.9999674 8.0000284 7.0000895 6.0001507 v 1.000456 h -0.999939 v 0.999939 0.999939 H 3.999756 v 0.999939 0.999939 0.999939 0.999939 0.999939 0.999939 1.000456 0.999938 0.999939 0.999939 0.999939 h 1.0004557 v 0.999938 h 0.999939 v 0.99994 h 0.9999388 v 0.99994 H 8.0000284 Z M 5.0002117,13.00024 V 11.999784 H 3.999756 v 1.000456 z m 5.9996333,0 v 0.999939 h 0.999939 V 13.00024 Z m 0,1.999878 v 0.999939 H 9.9999064 v 0.999939 h 0.9999386 v 0.999939 H 9.9999064 8.9999674 v 0.999939 0.999939 h 0.999939 v -0.999939 h 0.9999386 0.999939 v 0.999939 H 10.999845 9.9999064 v 0.999939 h 0.9999386 0.999939 v 1.000456 H 10.999845 9.9999064 v 0.999938 h 0.9999386 v 0.999939 h 0.999939 v -0.999939 h 1.000456 v -0.999938 -1.000456 h 0.999939 0.999939 0.999939 0.999939 0.999939 0.999939 0.999939 v -0.999939 h -0.999939 -0.999939 v -0.999939 -0.999939 -0.999939 -0.999939 h -0.999939 v 0.999939 0.999939 0.999939 0.999939 h -0.999939 -0.999939 v -0.999939 h 0.999939 v -0.999939 h -0.999939 -0.999939 v -0.999939 -0.999939 h 0.999939 0.999939 v -0.999939 h 0.999939 V 14.000179 H 16.000057 V 13.00024 H 15.000118 V 11.999784 H 14.000179 13.00024 v 1.000456 0.999939 h 0.999939 v 0.999939 H 13.00024 v 0.999939 0.999939 H 11.999784 V 16.000057 15.000118 Z M 13.00024,11.999784 V 10.999845 9.9999064 8.9999674 8.0000285 7.0000895 h 0.999939 V 6.0001507 H 13.00024 11.999784 v 0.9999388 0.999939 0.9999389 0.999939 0.9999386 0.999939 z m 0.999939,-4.9996945 v 0.999939 0.9999389 h 0.999939 v 0.999939 h 0.999939 v -0.999939 h 0.999939 v 0.999939 h 0.999939 v 0.9999386 h 0.999939 V 9.9999064 h 0.999939 V 8.9999674 8.0000285 h 0.999939 V 7.0000895 6.0001507 h -0.999939 v 0.9999388 h -0.999939 v 0.999939 h -0.999939 v -0.999939 h -0.999939 v 0.999939 h -0.999939 v -0.999939 h -0.999939 z m 5.999634,-0.9999388 v -0.999939 h -0.999939 v 0.999939 z m 0.999939,1.9998778 v 0.9999389 h 1.000456 V 8.0000285 Z m 1.000456,0.9999389 v 0.999939 0.9999386 h 0.999938 V 9.9999064 8.9999674 Z m -2.000395,0.999939 v 0.9999386 h 0.999939 V 9.9999064 Z m 0,0.9999386 h -0.999939 v 0.999939 h 0.999939 z M 16.999996,9.9999064 h -0.999939 v 0.9999386 0.999939 h 0.999939 v -0.999939 z m 0,1.9998776 v 1.000456 0.999939 h 0.999939 0.999939 0.999939 V 13.00024 H 18.999874 17.999935 V 11.999784 Z M 15.000118,9.9999064 h -0.999939 v 0.9999386 h 0.999939 z m 2.999817,6.0001506 h 0.999939 v 0.999939 0.999939 h 0.999939 v -0.999939 h 0.999939 v 0.999939 h 1.000456 v -0.999939 -0.999939 h -1.000456 v -0.999939 h -0.999939 -0.999939 -0.999939 z m 4.000273,1.999878 v 0.999939 h 0.999938 v 0.999939 0.999939 h -0.999938 v -0.999939 h -1.000456 v 0.999939 1.000456 h -0.999939 v 0.999938 h 0.999939 v 0.999939 h 1.000456 0.999938 v -0.999939 h -0.999938 v -0.999938 h 0.999938 0.999939 v 0.999938 h 0.999939 v 0.999939 h -0.999939 v 0.999939 h -0.999939 -0.999938 -1.000456 v -0.999939 h -0.999939 v -0.999939 h -0.999939 -0.999939 v 0.999939 0.999939 0.999939 h 0.999939 v -0.999939 h 0.999939 v 0.999939 h 0.999939 v 0.999938 h 1.000456 v -0.999938 h 0.999938 0.999939 v 0.999938 h -0.999939 v 0.99994 h -0.999938 -1.000456 v 0.99994 h 1.000456 v 1.000455 h 0.999938 0.999939 v -1.000455 -0.99994 h 0.999939 0.999939 v -0.99994 -0.999938 h -0.999939 v -0.999939 h 0.999939 v -0.999939 h 0.999938 v -0.999939 h -0.999938 v -0.999938 h 0.999938 0.99994 v -1.000456 h -0.99994 v -0.999939 h -0.999938 v -0.999939 h -0.999939 -0.999939 v -0.999939 h -0.999939 z m 1.999877,0 h 0.999939 0.999939 v -0.999939 h -0.999939 -0.999939 z m 0,-0.999939 v -0.999939 h 0.999939 0.999939 v 0.999939 h 0.999938 0.99994 v -0.999939 h -0.99994 v -0.999939 h -0.999938 v -0.999939 h -0.999939 v 0.999939 h -0.999939 -0.999939 v 0.999939 0.999939 z m 0.999939,-2.999817 V 13.00024 h -0.999939 -0.999939 -0.999938 v 0.999939 h 0.999938 0.999939 z M 22.000208,13.00024 v -1.000456 h -1.000456 v 1.000456 z m 5.999633,2.999817 h 0.99994 v -0.999939 h -0.99994 z m 0.99994,-0.999939 h 1.000455 v -0.999939 h -1.000455 z m -0.99994,1.999878 v 0.999939 h 0.99994 v -0.999939 z m -1.999878,8.000028 v 0.999939 h 0.999938 0.99994 v -0.999939 h -0.99994 z m 1.999878,0 h 0.99994 v -0.999939 h -0.99994 z m -1.999878,2.999817 v 0.99994 1.000455 0.99994 h 0.999938 v -0.99994 h 0.99994 v -1.000455 h -0.99994 v -0.99994 z m 1.999878,0.99994 h 0.99994 v 1.000455 0.99994 h 1.000455 v 0.999937 h -1.000455 -0.99994 v 0.99994 h 0.99994 v 0.99994 h -0.99994 -0.99994 -0.999938 v 0.999937 h -0.999939 v 0.99994 h 0.999939 v 0.99994 h 0.999938 v 0.999937 h 0.99994 V 36.99981 35.99987 34.99993 h 0.99994 1.000455 v 0.99994 h -1.000455 v 0.99994 h 1.000455 v 0.999937 h 0.99994 V 36.99981 h 0.999937 v -0.99994 h 0.99994 v -0.99994 h -0.99994 v -0.999937 h -0.999937 -0.99994 v -0.99994 h 0.99994 v -0.99994 h 0.999937 v -0.999937 h 0.99994 0.99994 v -0.99994 -1.000455 -0.99994 h -0.99994 v 0.99994 h -0.99994 v 1.000455 h -0.999937 -0.99994 v -1.000455 -0.99994 h -1.000455 v -0.99994 h -0.99994 v 0.99994 z m 0.99994,-1.99988 h 1.000455 v -0.999938 h -1.000455 z m 1.000455,0 v 0.99994 h 0.99994 v 0.99994 h 0.999937 v -0.99994 h 0.99994 v -0.99994 h -0.99994 v -0.999938 h -0.999937 v 0.999938 z m 1.999877,-0.999938 h 0.99994 v -0.999939 h -0.99994 z m 0.99994,-0.999939 h 0.99994 v -0.999939 h -0.99994 z m 0.99994,0 v 0.999939 h 0.999937 v -0.999939 z m -1.99988,8.999969 h 0.99994 v -0.99994 h -0.99994 z m 0.99994,-0.99994 h 0.99994 v -0.99994 h -0.99994 z m 0,2.999817 v 0.99994 h -0.99994 v 0.999937 h 0.99994 0.99994 V 36.99981 35.99987 Z m -6.000152,1.999877 h -0.999938 v 1.000455 h 0.999938 z M 25.000024,34.99993 v -0.999937 h -0.999939 v 0.999937 z m 2.999817,-2.999817 v -0.999937 h -0.99994 v 0.999937 z m -0.99994,0 h -0.999938 v 0.99994 h 0.999938 z m -0.999938,0 v -0.999937 h -0.999939 v 0.999937 z m -0.999939,0 h -0.999939 v 0.99994 h 0.999939 z m -0.999939,0 v -0.999937 h -0.999939 -0.999938 v 0.999937 h 0.999938 z m -1.999877,0 h -1.000456 v 0.99994 0.99994 h -0.999939 v 0.999937 h 0.999939 1.000456 v -0.999937 h 0.999938 v -0.99994 h -0.999938 z m 0,2.999817 v 0.99994 h 0.999938 v -0.99994 z m -2.000395,-0.999937 v -0.99994 -0.99994 h 0.999939 v -0.999937 h -0.999939 -0.999939 v -0.99994 -1.000455 h -0.999939 v 1.000455 h -0.999939 v -1.000455 -0.99994 h -0.999939 v 0.99994 h -0.999939 v 1.000455 h 0.999939 v 0.99994 h 0.999939 v 0.999937 h 0.999939 v 0.99994 h 0.999939 v 0.99994 z m -4.999695,-5.000212 v -0.99994 h 0.999939 v -0.99994 h -0.999939 v -0.999938 -0.999939 h -0.999939 v 0.999939 H 13.00024 v -0.999939 h -1.000456 v 0.999939 0.999938 0.99994 h 1.000456 v -0.99994 h 0.999939 v 0.99994 H 13.00024 v 0.99994 h 0.999939 z M 13.00024,25.000024 h 0.999939 v -0.999939 h 0.999939 0.999939 v -0.999939 -0.999938 h -0.999939 -0.999939 v 0.999938 H 13.00024 v 0.999939 z m 2.999817,-0.999939 v 0.999939 h 0.999939 v -0.999939 z m 0,2.999816 h 0.999939 v 0.99994 h 0.999939 0.999939 0.999939 0.999939 v -0.99994 h -0.999939 v -0.999938 h -0.999939 v 0.999938 h -0.999939 v -0.999938 h -0.999939 -0.999939 z m 4.999695,-7.000088 v -0.999939 -0.999939 h -0.999939 v 0.999939 0.999939 z m -9.999907,4.000272 H 9.9999064 8.9999674 v 0.999939 h 0.999939 0.9999386 z m -3.9997555,0 v 0.999939 h 0.9999389 v -0.999939 z m 2.9998169,2.999816 H 10.999845 V 25.999963 H 9.9999064 Z M 34.99993,33.999993 h -0.999937 v 0.999937 h 0.999937 z m 0.99994,-3.999757 v -1.000455 h -0.99994 v 1.000455 z m 3.000332,-10.000423 v -0.999939 h -1.000455 v 0.999939 z m 0.99994,0 h 0.99994 0.999937 v -0.999939 h -0.999937 -0.99994 z m -8.999966,-1.999878 v -0.999939 h 0.999937 v -0.999939 -0.999939 h 0.99994 V 14.000179 13.00024 h -0.99994 v 0.999939 h -0.999937 v 0.999939 0.999939 h -0.99994 v 0.999939 0.999939 z m 1.999877,-4.999695 h 0.99994 v -1.000456 h -0.99994 z m 0,3.999756 h 0.99994 v -0.999939 h -0.99994 z M 28.999781,11.999784 V 10.999845 9.9999064 h -0.99994 v 0.9999386 h -0.99994 v 0.999939 h -0.999938 v 1.000456 h 0.999938 v 0.999939 h 0.99994 V 13.00024 11.999784 Z m -2.999818,0 V 10.999845 H 25.000024 V 9.9999064 h -0.999939 v 0.9999386 0.999939 h 0.999939 z m 0,-8.000028 v 1.0004557 0.999939 h 0.999938 v -0.999939 h 0.99994 V 3.999756 h -0.99994 z m 11.999784,0 v 1.0004557 0.999939 0.9999388 0.9999389 0.999939 0.999939 0.9999386 h 1.000455 0.99994 0.99994 0.999937 0.99994 0.99994 0.999937 V 9.9999064 8.9999674 8.0000284 7.0000895 6.0001507 5.0002117 3.999756 h -0.999937 -0.99994 -0.99994 -0.999937 -0.99994 -0.99994 z M 5.0002117,5.0002117 h 0.999939 0.9999388 0.999939 0.9999389 0.999939 v 0.999939 0.9999388 0.9999389 0.999939 0.999939 H 8.9999674 8.0000285 7.0000895 6.0001507 5.0002117 V 8.9999674 8.0000284 7.0000895 6.0001507 Z m 9.9999063,0 v 0.999939 h 0.999939 v -0.999939 z m 24.000084,0 h 0.99994 0.99994 0.999937 0.99994 0.99994 v 0.999939 0.9999388 0.9999389 0.999939 0.999939 h -0.99994 -0.99994 -0.999937 -0.99994 -0.99994 V 8.9999674 8.0000284 7.0000895 6.0001507 Z M 6.0001507,6.0001507 v 0.9999388 0.9999389 0.999939 h 0.9999388 0.9999389 0.999939 V 8.0000284 7.0000895 6.0001507 H 8.0000284 7.0000895 Z m 33.9999913,0 v 0.9999388 0.9999389 0.999939 h 0.99994 0.999937 0.99994 V 8.0000284 7.0000895 6.0001507 h -0.99994 -0.999937 z m -7.000089,1.9998777 h 0.99994 v 0.999939 h -0.99994 z M 43.999899,13.00024 v 0.999939 h 0.999937 V 13.00024 Z M 6.0001507,14.000179 h 0.9999388 v 0.999939 H 6.0001507 Z m 28.9997793,0 h 0.99994 v 0.999939 H 34.99993 Z M 6.0001507,16.999996 h 0.9999388 v 0.999939 H 6.0001507 v 0.999939 h -0.999939 v -0.999939 h 0.999939 z m 7.0000893,1.999878 h 0.999939 v 0.999939 H 13.00024 Z m -8.0000283,0.999939 h 0.999939 v 0.999939 1.000456 0.999938 h -0.999939 v -0.999938 -1.000456 z m 18.9998733,0 h 0.999939 v 0.999939 H 24.000085 Z M 3.999756,28.999781 v 1.000455 h 1.0004557 v 0.99994 h 0.999939 v -0.99994 -1.000455 h -0.999939 z m 40.000143,2.000395 v 0.999937 h 0.999937 v -0.999937 z m 0,1.999877 v 0.99994 h 0.999937 v -0.99994 z M 6.0001507,35.99987 v 0.99994 H 7.0000895 V 35.99987 Z M 36.99981,36.99981 h 0.999937 1.000455 0.99994 v 0.999937 1.000455 0.99994 h -0.99994 -1.000455 -0.999937 v -0.99994 -1.000455 z M 3.999756,37.999747 v 1.000455 0.99994 0.99994 0.999937 0.99994 0.99994 0.999937 h 1.0004557 0.999939 0.9999388 0.9999389 0.999939 0.999939 0.9999386 v -0.999937 -0.99994 -0.99994 -0.999937 -0.99994 -0.99994 -1.000455 H 9.9999064 8.9999674 8.0000284 7.0000895 6.0001507 5.0002117 Z m 33.999991,0 v 1.000455 h 1.000455 V 37.999747 Z M 5.0002117,39.000202 h 0.999939 0.9999388 0.9999389 0.999939 0.999939 v 0.99994 0.99994 0.999937 0.99994 0.99994 H 8.9999674 8.0000284 7.0000895 6.0001507 5.0002117 v -0.99994 -0.99994 -0.999937 -0.99994 z m 38.9996873,0 v 0.99994 0.99994 h 0.999937 v -0.99994 -0.99994 z m -37.9997483,0.99994 v 0.99994 0.999937 0.99994 h 0.9999388 0.999939 0.9999389 v -0.99994 -0.999937 -0.99994 H 8.0000285 7.0000895 Z m 31.9995963,0.99994 h 1.000455 v 0.999937 h -1.000455 z"
         style="stroke-width:0.999998" /></clipPath></defs><sodipodi:namedview
     id="namedview5"
     pagecolor="#ffffff"
     bordercolor="#666666"
     borderopacity="1.0"
     inkscape:showpageshadow="2"
     inkscape:pageopacity="0.0"
     inkscape:pagecheckerboard="0"
     inkscape:deskcolor="#d1d1d1"
     inkscape:document-units="mm"
     showgrid="false"
     inkscape:zoom="3.6043205"
     inkscape:cx="183.11357"
     inkscape:cy="102.7933"
     inkscape:window-width="2560"
     inkscape:window-height="1376"
     inkscape:window-x="0"
     inkscape:window-y="0"
     inkscape:window-maximized="1"
     inkscape:current-layer="svg3" /><path
     d="M4,4H5V5H4zM5,4H6V5H5zM6,4H7V5H6zM7,4H8V5H7zM8,4H9V5H8zM9,4H10V5H9zM10,4H11V5H10zM13,4H14V5H13zM17,4H18V5H17zM22,4H23V5H22zM23,4H24V5H23zM24,4H25V5H24zM26,4H27V5H26zM27,4H28V5H27zM29,4H30V5H29zM30,4H31V5H30zM32,4H33V5H32zM33,4H34V5H33zM34,4H35V5H34zM35,4H36V5H35zM36,4H37V5H36zM38,4H39V5H38zM39,4H40V5H39zM40,4H41V5H40zM41,4H42V5H41zM42,4H43V5H42zM43,4H44V5H43zM44,4H45V5H44zM4,5H5V6H4zM10,5H11V6H10zM15,5H16V6H15zM19,5H20V6H19zM22,5H23V6H22zM24,5H25V6H24zM26,5H27V6H26zM30,5H31V6H30zM31,5H32V6H31zM32,5H33V6H32zM36,5H37V6H36zM38,5H39V6H38zM44,5H45V6H44zM4,6H5V7H4zM6,6H7V7H6zM7,6H8V7H7zM8,6H9V7H8zM10,6H11V7H10zM12,6H13V7H12zM13,6H14V7H13zM20,6H21V7H20zM23,6H24V7H23zM32,6H33V7H32zM34,6H35V7H34zM35,6H36V7H35zM38,6H39V7H38zM40,6H41V7H40zM41,6H42V7H41zM42,6H43V7H42zM44,6H45V7H44zM4,7H5V8H4zM6,7H7V8H6zM7,7H8V8H7zM8,7H9V8H8zM10,7H11V8H10zM12,7H13V8H12zM14,7H15V8H14zM15,7H16V8H15zM17,7H18V8H17zM19,7H20V8H19zM20,7H21V8H20zM22,7H23V8H22zM23,7H24V8H23zM24,7H25V8H24zM25,7H26V8H25zM26,7H27V8H26zM28,7H29V8H28zM32,7H33V8H32zM33,7H34V8H33zM34,7H35V8H34zM36,7H37V8H36zM38,7H39V8H38zM40,7H41V8H40zM41,7H42V8H41zM42,7H43V8H42zM44,7H45V8H44zM4,8H5V9H4zM6,8H7V9H6zM7,8H8V9H7zM8,8H9V9H8zM10,8H11V9H10zM12,8H13V9H12zM14,8H15V9H14zM15,8H16V9H15zM16,8H17V9H16zM17,8H18V9H17zM18,8H19V9H18zM19,8H20V9H19zM21,8H22V9H21zM23,8H24V9H23zM24,8H25V9H24zM25,8H26V9H25zM27,8H28V9H27zM29,8H30V9H29zM32,8H33V9H32zM34,8H35V9H34zM35,8H36V9H35zM36,8H37V9H36zM38,8H39V9H38zM40,8H41V9H40zM41,8H42V9H41zM42,8H43V9H42zM44,8H45V9H44zM4,9H5V10H4zM10,9H11V10H10zM12,9H13V10H12zM15,9H16V10H15zM17,9H18V10H17zM18,9H19V10H18zM19,9H20V10H19zM22,9H23V10H22zM25,9H26V10H25zM26,9H27V10H26zM30,9H31V10H30zM31,9H32V10H31zM32,9H33V10H32zM33,9H34V10H33zM34,9H35V10H34zM36,9H37V10H36zM38,9H39V10H38zM44,9H45V10H44zM4,10H5V11H4zM5,10H6V11H5zM6,10H7V11H6zM7,10H8V11H7zM8,10H9V11H8zM9,10H10V11H9zM10,10H11V11H10zM12,10H13V11H12zM14,10H15V11H14zM16,10H17V11H16zM18,10H19V11H18zM20,10H21V11H20zM22,10H23V11H22zM24,10H25V11H24zM26,10H27V11H26zM28,10H29V11H28zM30,10H31V11H30zM32,10H33V11H32zM34,10H35V11H34zM36,10H37V11H36zM38,10H39V11H38zM39,10H40V11H39zM40,10H41V11H40zM41,10H42V11H41zM42,10H43V11H42zM43,10H44V11H43zM44,10H45V11H44zM12,11H13V12H12zM16,11H17V12H16zM19,11H20V12H19zM24,11H25V12H24zM25,11H26V12H25zM27,11H28V12H27zM28,11H29V12H28zM31,11H32V12H31zM32,11H33V12H32zM35,11H36V12H35zM36,11H37V12H36zM4,12H5V13H4zM6,12H7V13H6zM7,12H8V13H7zM8,12H9V13H8zM9,12H10V13H9zM10,12H11V13H10zM13,12H14V13H13zM14,12H15V13H14zM17,12H18V13H17zM21,12H22V13H21zM26,12H27V13H26zM27,12H28V13H27zM29,12H30V13H29zM30,12H31V13H30zM31,12H32V13H31zM33,12H34V13H33zM35,12H36V13H35zM36,12H37V13H36zM38,12H39V13H38zM39,12H40V13H39zM40,12H41V13H40zM41,12H42V13H41zM42,12H43V13H42zM5,13H6V14H5zM6,13H7V14H6zM7,13H8V14H7zM11,13H12V14H11zM13,13H14V14H13zM14,13H15V14H14zM15,13H16V14H15zM17,13H18V14H17zM18,13H19V14H18zM19,13H20V14H19zM22,13H23V14H22zM23,13H24V14H23zM24,13H25V14H24zM27,13H28V14H27zM32,13H33V14H32zM34,13H35V14H34zM35,13H36V14H35zM36,13H37V14H36zM37,13H38V14H37zM38,13H39V14H38zM39,13H40V14H39zM40,13H41V14H40zM42,13H43V14H42zM44,13H45V14H44zM5,14H6V15H5zM7,14H8V15H7zM8,14H9V15H8zM9,14H10V15H9zM10,14H11V15H10zM14,14H15V15H14zM15,14H16V15H15zM16,14H17V15H16zM25,14H26V15H25zM29,14H30V15H29zM31,14H32V15H31zM32,14H33V15H32zM34,14H35V15H34zM36,14H37V15H36zM38,14H39V15H38zM39,14H40V15H39zM4,15H5V16H4zM5,15H6V16H5zM6,15H7V16H6zM7,15H8V16H7zM8,15H9V16H8zM9,15H10V16H9zM11,15H12V16H11zM13,15H14V16H13zM14,15H15V16H14zM15,15H16V16H15zM18,15H19V16H18zM19,15H20V16H19zM20,15H21V16H20zM23,15H24V16H23zM24,15H25V16H24zM25,15H26V16H25zM26,15H27V16H26zM28,15H29V16H28zM31,15H32V16H31zM34,15H35V16H34zM35,15H36V16H35zM36,15H37V16H36zM38,15H39V16H38zM39,15H40V16H39zM41,15H42V16H41zM44,15H45V16H44zM4,16H5V17H4zM5,16H6V17H5zM6,16H7V17H6zM7,16H8V17H7zM8,16H9V17H8zM10,16H11V17H10zM11,16H12V17H11zM13,16H14V17H13zM17,16H18V17H17zM19,16H20V17H19zM20,16H21V17H20zM21,16H22V17H21zM23,16H24V17H23zM26,16H27V17H26zM27,16H28V17H27zM30,16H31V17H30zM31,16H32V17H31zM33,16H34V17H33zM35,16H36V17H35zM41,16H42V17H41zM42,16H43V17H42zM44,16H45V17H44zM4,17H5V18H4zM5,17H6V18H5zM7,17H8V18H7zM8,17H9V18H8zM11,17H12V18H11zM12,17H13V18H12zM13,17H14V18H13zM17,17H18V18H17zM19,17H20V18H19zM21,17H22V18H21zM24,17H25V18H24zM25,17H26V18H25zM28,17H29V18H28zM30,17H31V18H30zM32,17H33V18H32zM34,17H35V18H34zM35,17H36V18H35zM36,17H37V18H36zM38,17H39V18H38zM39,17H40V18H39zM40,17H41V18H40zM41,17H42V18H41zM42,17H43V18H42zM43,17H44V18H43zM44,17H45V18H44zM4,18H5V19H4zM6,18H7V19H6zM7,18H8V19H7zM9,18H10V19H9zM10,18H11V19H10zM11,18H12V19H11zM12,18H13V19H12zM13,18H14V19H13zM14,18H15V19H14zM15,18H16V19H15zM17,18H18V19H17zM20,18H21V19H20zM22,18H23V19H22zM23,18H24V19H23zM31,18H32V19H31zM32,18H33V19H32zM33,18H34V19H33zM34,18H35V19H34zM36,18H37V19H36zM37,18H38V19H37zM39,18H40V19H39zM42,18H43V19H42zM4,19H5V20H4zM5,19H6V20H5zM6,19H7V20H6zM7,19H8V20H7zM9,19H10V20H9zM12,19H13V20H12zM14,19H15V20H14zM17,19H18V20H17zM20,19H21V20H20zM23,19H24V20H23zM24,19H25V20H24zM25,19H26V20H25zM28,19H29V20H28zM31,19H32V20H31zM32,19H33V20H32zM38,19H39V20H38zM40,19H41V20H40zM41,19H42V20H41zM43,19H44V20H43zM44,19H45V20H44zM4,20H5V21H4zM6,20H7V21H6zM10,20H11V21H10zM11,20H12V21H11zM12,20H13V21H12zM13,20H14V21H13zM14,20H15V21H14zM15,20H16V21H15zM16,20H17V21H16zM17,20H18V21H17zM18,20H19V21H18zM19,20H20V21H19zM21,20H22V21H21zM23,20H24V21H23zM25,20H26V21H25zM26,20H27V21H26zM28,20H29V21H28zM29,20H30V21H29zM30,20H31V21H30zM32,20H33V21H32zM33,20H34V21H33zM36,20H37V21H36zM37,20H38V21H37zM39,20H40V21H39zM42,20H43V21H42zM43,20H44V21H43zM4,21H5V22H4zM6,21H7V22H6zM7,21H8V22H7zM8,21H9V22H8zM12,21H13V22H12zM21,21H22V22H21zM22,21H23V22H22zM23,21H24V22H23zM24,21H25V22H24zM25,21H26V22H25zM26,21H27V22H26zM27,21H28V22H27zM29,21H30V22H29zM31,21H32V22H31zM32,21H33V22H32zM33,21H34V22H33zM34,21H35V22H34zM35,21H36V22H35zM36,21H37V22H36zM38,21H39V22H38zM39,21H40V22H39zM40,21H41V22H40zM42,21H43V22H42zM43,21H44V22H43zM44,21H45V22H44zM4,22H5V23H4zM6,22H7V23H6zM10,22H11V23H10zM11,22H12V23H11zM12,22H13V23H12zM14,22H15V23H14zM15,22H16V23H15zM20,22H21V23H20zM21,22H22V23H21zM24,22H25V23H24zM25,22H26V23H25zM28,22H29V23H28zM29,22H30V23H29zM30,22H31V23H30zM31,22H32V23H31zM32,22H33V23H32zM33,22H34V23H33zM36,22H37V23H36zM37,22H38V23H37zM40,22H41V23H40zM41,22H42V23H41zM4,23H5V24H4zM5,23H6V24H5zM6,23H7V24H6zM11,23H12V24H11zM13,23H14V24H13zM14,23H15V24H14zM15,23H16V24H15zM18,23H19V24H18zM19,23H20V24H19zM21,23H22V24H21zM22,23H23V24H22zM25,23H26V24H25zM26,23H27V24H26zM29,23H30V24H29zM31,23H32V24H31zM32,23H33V24H32zM34,23H35V24H34zM35,23H36V24H35zM40,23H41V24H40zM41,23H42V24H41zM4,24H5V25H4zM5,24H6V25H5zM7,24H8V25H7zM9,24H10V25H9zM10,24H11V25H10zM13,24H14V25H13zM16,24H17V25H16zM18,24H19V25H18zM19,24H20V25H19zM20,24H21V25H20zM24,24H25V25H24zM25,24H26V25H25zM28,24H29V25H28zM30,24H31V25H30zM31,24H32V25H31zM33,24H34V25H33zM35,24H36V25H35zM36,24H37V25H36zM42,24H43V25H42zM43,24H44V25H43zM44,24H45V25H44zM4,25H5V26H4zM5,25H6V26H5zM8,25H9V26H8zM12,25H13V26H12zM14,25H15V26H14zM18,25H19V26H18zM20,25H21V26H20zM21,25H22V26H21zM22,25H23V26H22zM23,25H24V26H23zM24,25H25V26H24zM26,25H27V26H26zM27,25H28V26H27zM32,25H33V26H32zM34,25H35V26H34zM36,25H37V26H36zM38,25H39V26H38zM39,25H40V26H39zM40,25H41V26H40zM41,25H42V26H41zM43,25H44V26H43zM44,25H45V26H44zM5,26H6V27H5zM6,26H7V27H6zM8,26H9V27H8zM10,26H11V27H10zM12,26H13V27H12zM13,26H14V27H13zM14,26H15V27H14zM16,26H17V27H16zM17,26H18V27H17zM19,26H20V27H19zM21,26H22V27H21zM24,26H25V27H24zM25,26H26V27H25zM29,26H30V27H29zM31,26H32V27H31zM36,26H37V27H36zM37,26H38V27H37zM38,26H39V27H38zM40,26H41V27H40zM6,27H7V28H6zM7,27H8V28H7zM8,27H9V28H8zM9,27H10V28H9zM12,27H13V28H12zM14,27H15V28H14zM15,27H16V28H15zM17,27H18V28H17zM18,27H19V28H18zM19,27H20V28H19zM20,27H21V28H20zM23,27H24V28H23zM24,27H25V28H24zM25,27H26V28H25zM28,27H29V28H28zM30,27H31V28H30zM31,27H32V28H31zM32,27H33V28H32zM36,27H37V28H36zM39,27H40V28H39zM40,27H41V28H40zM41,27H42V28H41zM43,27H44V28H43zM44,27H45V28H44zM7,28H8V29H7zM8,28H9V29H8zM9,28H10V29H9zM10,28H11V29H10zM11,28H12V29H11zM13,28H14V29H13zM14,28H15V29H14zM16,28H17V29H16zM21,28H22V29H21zM22,28H23V29H22zM23,28H24V29H23zM26,28H27V29H26zM28,28H29V29H28zM29,28H30V29H29zM31,28H32V29H31zM33,28H34V29H33zM41,28H42V29H41zM42,28H43V29H42zM44,28H45V29H44zM4,29H5V30H4zM5,29H6V30H5zM8,29H9V30H8zM11,29H12V30H11zM12,29H13V30H12zM15,29H16V30H15zM16,29H17V30H16zM18,29H19V30H18zM22,29H23V30H22zM23,29H24V30H23zM26,29H27V30H26zM27,29H28V30H27zM29,29H30V30H29zM32,29H33V30H32zM33,29H34V30H33zM35,29H36V30H35zM37,29H38V30H37zM38,29H39V30H38zM40,29H41V30H40zM41,29H42V30H41zM5,30H6V31H5zM7,30H8V31H7zM9,30H10V31H9zM10,30H11V31H10zM13,30H14V31H13zM14,30H15V31H14zM16,30H17V31H16zM17,30H18V31H17zM18,30H19V31H18zM26,30H27V31H26zM29,30H30V31H29zM30,30H31V31H30zM31,30H32V31H31zM32,30H33V31H32zM33,30H34V31H33zM36,30H37V31H36zM37,30H38V31H37zM40,30H41V31H40zM7,31H8V32H7zM8,31H9V32H8zM9,31H10V32H9zM13,31H14V32H13zM17,31H18V32H17zM18,31H19V32H18zM19,31H20V32H19zM20,31H21V32H20zM22,31H23V32H22zM23,31H24V32H23zM25,31H26V32H25zM27,31H28V32H27zM30,31H31V32H30zM31,31H32V32H31zM35,31H36V32H35zM36,31H37V32H36zM37,31H38V32H37zM38,31H39V32H38zM39,31H40V32H39zM41,31H42V32H41zM44,31H45V32H44zM10,32H11V33H10zM11,32H12V33H11zM13,32H14V33H13zM14,32H15V33H14zM15,32H16V33H15zM18,32H19V33H18zM19,32H20V33H19zM21,32H22V33H21zM24,32H25V33H24zM26,32H27V33H26zM28,32H29V33H28zM29,32H30V33H29zM30,32H31V33H30zM33,32H34V33H33zM35,32H36V33H35zM41,32H42V33H41zM42,32H43V33H42zM4,33H5V34H4zM5,33H6V34H5zM6,33H7V34H6zM11,33H12V34H11zM12,33H13V34H12zM15,33H16V34H15zM17,33H18V34H17zM19,33H20V34H19zM21,33H22V34H21zM22,33H23V34H22zM29,33H30V34H29zM32,33H33V34H32zM35,33H36V34H35zM36,33H37V34H36zM37,33H38V34H37zM38,33H39V34H38zM39,33H40V34H39zM40,33H41V34H40zM42,33H43V34H42zM44,33H45V34H44zM4,34H5V35H4zM7,34H8V35H7zM9,34H10V35H9zM10,34H11V35H10zM13,34H14V35H13zM14,34H15V35H14zM15,34H16V35H15zM16,34H17V35H16zM17,34H18V35H17zM18,34H19V35H18zM20,34H21V35H20zM21,34H22V35H21zM24,34H25V35H24zM26,34H27V35H26zM27,34H28V35H27zM28,34H29V35H28zM29,34H30V35H29zM30,34H31V35H30zM31,34H32V35H31zM34,34H35V35H34zM36,34H37V35H36zM37,34H38V35H37zM38,34H39V35H38zM39,34H40V35H39zM41,34H42V35H41zM42,34H43V35H42zM4,35H5V36H4zM8,35H9V36H8zM9,35H10V36H9zM12,35H13V36H12zM15,35H16V36H15zM16,35H17V36H16zM17,35H18V36H17zM18,35H19V36H18zM19,35H20V36H19zM22,35H23V36H22zM25,35H26V36H25zM26,35H27V36H26zM27,35H28V36H27zM30,35H31V36H30zM31,35H32V36H31zM32,35H33V36H32zM37,35H38V36H37zM38,35H39V36H38zM40,35H41V36H40zM41,35H42V36H41zM44,35H45V36H44zM4,36H5V37H4zM6,36H7V37H6zM8,36H9V37H8zM9,36H10V37H9zM10,36H11V37H10zM11,36H12V37H11zM12,36H13V37H12zM13,36H14V37H13zM15,36H16V37H15zM17,36H18V37H17zM19,36H20V37H19zM20,36H21V37H20zM21,36H22V37H21zM26,36H27V37H26zM27,36H28V37H27zM29,36H30V37H29zM30,36H31V37H30zM31,36H32V37H31zM33,36H34V37H33zM35,36H36V37H35zM36,36H37V37H36zM37,36H38V37H37zM38,36H39V37H38zM39,36H40V37H39zM40,36H41V37H40zM41,36H42V37H41zM42,36H43V37H42zM44,36H45V37H44zM12,37H13V38H12zM15,37H16V38H15zM18,37H19V38H18zM22,37H23V38H22zM23,37H24V38H23zM24,37H25V38H24zM27,37H28V38H27zM30,37H31V38H30zM32,37H33V38H32zM33,37H34V38H33zM36,37H37V38H36zM40,37H41V38H40zM43,37H44V38H43zM44,37H45V38H44zM4,38H5V39H4zM5,38H6V39H5zM6,38H7V39H6zM7,38H8V39H7zM8,38H9V39H8zM9,38H10V39H9zM10,38H11V39H10zM13,38H14V39H13zM14,38H15V39H14zM15,38H16V39H15zM16,38H17V39H16zM17,38H18V39H17zM19,38H20V39H19zM20,38H21V39H20zM22,38H23V39H22zM24,38H25V39H24zM26,38H27V39H26zM31,38H32V39H31zM34,38H35V39H34zM35,38H36V39H35zM36,38H37V39H36zM38,38H39V39H38zM40,38H41V39H40zM41,38H42V39H41zM4,39H5V40H4zM10,39H11V40H10zM12,39H13V40H12zM13,39H14V40H13zM14,39H15V40H14zM19,39H20V40H19zM24,39H25V40H24zM27,39H28V40H27zM28,39H29V40H28zM30,39H31V40H30zM31,39H32V40H31zM34,39H35V40H34zM35,39H36V40H35zM36,39H37V40H36zM40,39H41V40H40zM41,39H42V40H41zM44,39H45V40H44zM4,40H5V41H4zM6,40H7V41H6zM7,40H8V41H7zM8,40H9V41H8zM10,40H11V41H10zM12,40H13V41H12zM13,40H14V41H13zM14,40H15V41H14zM15,40H16V41H15zM16,40H17V41H16zM18,40H19V41H18zM20,40H21V41H20zM22,40H23V41H22zM23,40H24V41H23zM24,40H25V41H24zM25,40H26V41H25zM26,40H27V41H26zM28,40H29V41H28zM31,40H32V41H31zM32,40H33V41H32zM33,40H34V41H33zM36,40H37V41H36zM37,40H38V41H37zM38,40H39V41H38zM39,40H40V41H39zM40,40H41V41H40zM42,40H43V41H42zM44,40H45V41H44zM4,41H5V42H4zM6,41H7V42H6zM7,41H8V42H7zM8,41H9V42H8zM10,41H11V42H10zM12,41H13V42H12zM13,41H14V42H13zM15,41H16V42H15zM18,41H19V42H18zM20,41H21V42H20zM24,41H25V42H24zM25,41H26V42H25zM27,41H28V42H27zM29,41H30V42H29zM30,41H31V42H30zM32,41H33V42H32zM36,41H37V42H36zM37,41H38V42H37zM39,41H40V42H39zM41,41H42V42H41zM4,42H5V43H4zM6,42H7V43H6zM7,42H8V43H7zM8,42H9V43H8zM10,42H11V43H10zM12,42H13V43H12zM13,42H14V43H13zM14,42H15V43H14zM16,42H17V43H16zM17,42H18V43H17zM19,42H20V43H19zM20,42H21V43H20zM22,42H23V43H22zM24,42H25V43H24zM25,42H26V43H25zM26,42H27V43H26zM29,42H30V43H29zM30,42H31V43H30zM31,42H32V43H31zM32,42H33V43H32zM33,42H34V43H33zM34,42H35V43H34zM35,42H36V43H35zM36,42H37V43H36zM37,42H38V43H37zM38,42H39V43H38zM39,42H40V43H39zM40,42H41V43H40zM41,42H42V43H41zM4,43H5V44H4zM10,43H11V44H10zM13,43H14V44H13zM15,43H16V44H15zM16,43H17V44H16zM17,43H18V44H17zM18,43H19V44H18zM20,43H21V44H20zM23,43H24V44H23zM24,43H25V44H24zM25,43H26V44H25zM26,43H27V44H26zM34,43H35V44H34zM36,43H37V44H36zM37,43H38V44H37zM40,43H41V44H40zM41,43H42V44H41zM43,43H44V44H43zM4,44H5V45H4zM5,44H6V45H5zM6,44H7V45H6zM7,44H8V45H7zM8,44H9V45H8zM9,44H10V45H9zM10,44H11V45H10zM12,44H13V45H12zM13,44H14V45H13zM16,44H17V45H16zM22,44H23V45H22zM26,44H27V45H26zM27,44H28V45H27zM28,44H29V45H28zM29,44H30V45H29zM30,44H31V45H30zM31,44H32V45H31zM33,44H34V45H33zM35,44H36V45H35zM37,44H38V45H37zM39,44H40V45H39zM40,44H41V45H40zM41,44H42V45H41zM42,44H43V45H42z"
     id="qr-path"
     fill="#000000"
     fill-opacity="1"
     fill-rule="nonzero"
     stroke="none" /><g
     inkscape:groupmode="maskhelper"
     id="g350"
     clip-path="url(#clipPath370)"><g
       id="g25774"
       transform="matrix(2.0637158,0,0,2.0637158,-21.801784,-324.90347)"
       style="stroke-width:0.242201"
       inkscape:label="symbol"><g
         id="g113721-6-1-9-7"
         transform="matrix(1.1871785,0,0,1.1871786,-13.859724,-96.463824)"
         style="fill:#4f9e4e;fill-opacity:1;stroke-width:0.204013"
         inkscape:label="field"><path
           id="rect105256-3-7-6-7-5"
           style="fill:#70ad47;fill-opacity:1;stroke-width:0.0510037;stroke-linecap:round;stroke-linejoin:round;stroke-opacity:0;stop-color:#000000"
           d="m 20.573198,213.86839 h 10 v 10 0 z"
           sodipodi:nodetypes="ccccc" /><path
           style="fill:#317514;fill-opacity:1;stroke-width:0.204013"
           d="m 22.744771,216.03996 c 1.562098,-1.56209 4.094757,-1.56209 5.656854,0 1.562098,1.5621 1.562098,4.09476 0,5.65686"
           id="path1401" /><path
           style="fill:#70ad47;stroke-width:0.204013"
           d="m 28.401625,221.69682 c -1.562098,1.56209 -4.094757,1.56209 -5.656854,0 -1.562097,-1.5621 -1.562098,-4.09476 0,-5.65686"
           id="path95720-3-8-8-8-4-6-9-8" /></g><g
         id="g113721-6-1-9-7-4"
         transform="matrix(0,1.1871785,-1.1871786,0,288.20789,133.0121)"
         style="fill:#4f9e4e;fill-opacity:1;stroke-width:0.204013"
         inkscape:label="quantitative"><path
           id="rect105256-3-7-6-7-5-8"
           style="fill:#767171;fill-opacity:1;stroke-width:0.0510037;stroke-linecap:round;stroke-linejoin:round;stroke-opacity:0;stop-color:#000000"
           d="m 20.573198,213.86839 h 10 v 10 0 z"
           sodipodi:nodetypes="ccccc" /><path
           style="fill:#373232;fill-opacity:1;stroke-width:0.204013"
           d="m 22.744771,216.03996 c 1.562098,-1.56209 4.094757,-1.56209 5.656854,0 1.562098,1.5621 1.562098,4.09476 0,5.65686"
           id="path1401-1" /><path
           style="fill:#767171;fill-opacity:1;stroke-width:0.204013"
           d="m 28.401625,221.69682 c -1.562098,1.56209 -4.094757,1.56209 -5.656854,0 -1.562097,-1.5621 -1.562098,-4.09476 0,-5.65686"
           id="path95720-3-8-8-8-4-6-9-8-0" /></g><g
         id="g113721-6-1-9-7-3"
         transform="matrix(-1.1871785,0,0,-1.1871786,58.73197,435.0797)"
         style="fill:#4f9e4e;fill-opacity:1;stroke-width:0.204013"
         inkscape:label="lab"><path
           id="rect105256-3-7-6-7-5-0"
           style="fill:#c55a11;fill-opacity:1;stroke-width:0.0510037;stroke-linecap:round;stroke-linejoin:round;stroke-opacity:0;stop-color:#000000"
           d="m 20.573198,213.86839 h 10 v 10 0 z"
           sodipodi:nodetypes="ccccc" /><path
           style="fill:#982001;fill-opacity:1;stroke-width:0.204013"
           d="m 22.744771,216.03996 c 1.562098,-1.56209 4.094757,-1.56209 5.656854,0 1.562098,1.5621 1.562098,4.09476 0,5.65686"
           id="path1401-4" /><path
           style="fill:#c55a11;fill-opacity:1;stroke-width:0.204013"
           d="m 28.401625,221.69682 c -1.562098,1.56209 -4.094757,1.56209 -5.656854,0 -1.562097,-1.5621 -1.562098,-4.09476 0,-5.65686"
           id="path95720-3-8-8-8-4-6-9-8-4" /></g><g
         id="g113721-6-1-9-7-3-4"
         transform="matrix(0,-1.1871785,1.1871786,0,-243.33564,205.60378)"
         style="fill:#4f9e4e;fill-opacity:1;stroke-width:0.204013"
         inkscape:label="qualitative"><path
           id="rect105256-3-7-6-7-5-0-4"
           style="fill:#2e75b6;fill-opacity:1;stroke-width:0.0510037;stroke-linecap:round;stroke-linejoin:round;stroke-opacity:0;stop-color:#000000"
           d="m 20.573198,213.86839 h 10 v 10 0 z"
           sodipodi:nodetypes="ccccc" /><path
           style="fill:#083682;fill-opacity:1;stroke-width:0.204013"
           d="m 22.744771,216.03996 c 1.562098,-1.56209 4.094757,-1.56209 5.656854,0 1.562098,1.5621 1.562098,4.09476 0,5.65686"
           id="path1401-4-7" /><path
           style="fill:#2e75b6;fill-opacity:1;stroke-width:0.204013"
           d="m 28.401625,221.69682 c -1.562098,1.56209 -4.094757,1.56209 -5.656854,0 -1.562097,-1.5621 -1.562098,-4.09476 0,-5.65686"
           id="path95720-3-8-8-8-4-6-9-8-4-6" /></g></g></g></svg>
