<?xml version="1.0" encoding="UTF-8" standalone="no"?>
<!-- Created with Inkscape (http://www.inkscape.org/) -->

<svg
   width="145.28474mm"
   height="94.751221mm"
   viewBox="0 0 145.28474 94.75122"
   version="1.1"
   id="svg5"
   inkscape:version="1.2.2 (1:1.2.2+202212051551+b0a8486541)"
   xml:space="preserve"
   sodipodi:docname="two_hands_two_devices.svg"
   xmlns:inkscape="http://www.inkscape.org/namespaces/inkscape"
   xmlns:sodipodi="http://sodipodi.sourceforge.net/DTD/sodipodi-0.dtd"
   xmlns="http://www.w3.org/2000/svg"
   xmlns:svg="http://www.w3.org/2000/svg"><sodipodi:namedview
     id="namedview7"
     pagecolor="#292929"
     bordercolor="#666666"
     borderopacity="1.0"
     inkscape:pageshadow="2"
     inkscape:pageopacity="0"
     inkscape:pagecheckerboard="0"
     inkscape:document-units="mm"
     showgrid="false"
     inkscape:showpageshadow="2"
     inkscape:deskcolor="#292929"
     inkscape:zoom="1.6819304"
     inkscape:cx="216.12071"
     inkscape:cy="173.31276"
     inkscape:window-width="2560"
     inkscape:window-height="1376"
     inkscape:window-x="0"
     inkscape:window-y="0"
     inkscape:window-maximized="1"
     inkscape:current-layer="layer1" /><defs
     id="defs2" /><g
     inkscape:label="Layer 1"
     inkscape:groupmode="layer"
     id="layer1"
     transform="translate(-26.911239,-34.456956)"><rect
       style="fill:#ffffff;stroke:#00ffff;stroke-width:0.499999;paint-order:stroke fill markers;stop-color:#000000"
       id="rect1001"
       width="145.03473"
       height="94.501221"
       x="27.161238"
       y="34.706955" /><g
       id="g750"
       transform="translate(0,2.1226925)"><path
         style="fill:#000000;stroke-width:1"
         d="m 28.537944,80.107288 v -18.87361 h 52.916669 52.916667 v 18.87361 18.87361 H 81.454613 28.537944 Z m 8.819445,14.2875 v -2.46945 H 34.006 30.654611 v 2.46945 2.46944 H 34.006 37.357389 Z m 9.172222,0 v -2.46945 h -3.527778 -3.527778 v 2.46945 2.46944 h 3.527778 3.527778 z m 9.525001,0 v -2.46945 h -3.704167 -3.704167 v 2.46945 2.46944 h 3.704167 3.704167 z m 49.036118,0 v -2.46945 H 81.454613 57.818501 v 2.46945 2.46944 h 23.636112 23.636117 z m 9.17222,0 v -2.46945 h -3.52778 -3.52778 v 2.46945 2.46944 h 3.52778 3.52778 z m 9.525,0 v -2.46945 h -3.70417 -3.70417 v 2.46945 2.46944 h 3.70417 3.70417 z m 8.46667,0 v -2.46945 h -3.35139 -3.35139 v 2.46945 2.46944 h 3.35139 3.35139 z M 45.1185,87.16284 v -2.645831 h -7.231945 -7.231944 v 2.645831 2.64584 h 7.231944 7.231945 z m 7.055556,0 v -2.645831 h -2.469445 -2.469444 v 2.645831 2.64584 h 2.469444 2.469445 z m 7.408333,0 v -2.645831 h -2.645833 -2.645833 v 2.645831 2.64584 h 2.645833 2.645833 z m 7.055556,0 v -2.645831 h -2.645833 -2.645834 v 2.645831 2.64584 h 2.645834 2.645833 z m 7.055556,0 v -2.645831 h -2.469444 -2.469445 v 2.645831 2.64584 h 2.469445 2.469444 z m 7.335595,0.0882 -0.10365,-2.557642 -2.557639,-0.10365 -2.557639,-0.10365 v 2.66129 2.66129 h 2.661289 2.661288 z m 7.128295,-0.0882 v -2.645831 h -2.645834 -2.645833 v 2.645831 2.64584 h 2.645833 2.645834 z m 7.055555,0 v -2.645831 h -2.469444 -2.469445 v 2.645831 2.64584 h 2.469445 2.469444 z m 7.408334,0 v -2.645831 h -2.645831 -2.645836 v 2.645831 2.64584 h 2.645836 2.645831 z m 7.05556,0 v -2.645831 h -2.64584 -2.64583 v 2.645831 2.64584 h 2.64583 2.64584 z m 7.05555,0 v -2.645831 h -2.46944 -2.46945 v 2.645831 2.64584 h 2.46945 2.46944 z m 15.52223,0 v -2.645831 h -6.70278 -6.70278 v 2.645831 2.64584 h 6.70278 6.70278 z M 41.237944,80.10729 v -2.64583 h -5.291667 -5.291666 v 2.64583 2.64583 h 5.291666 5.291667 z m 7.408334,0 v -2.64583 h -2.645834 -2.645833 v 2.41064 2.41065 l 0.235185,0.23519 0.235185,0.23518 h 2.410649 2.410648 z m 7.335594,-0.0882 0.10365,-2.55763 h -2.661289 -2.661288 v 2.66128 2.66129 l 2.557639,-0.103651 2.557639,-0.10365 z m 7.128295,0.0882 v -2.64583 h -2.645833 -2.645833 v 2.64583 2.64583 h 2.645833 2.645833 z m 7.055556,0 v -2.64583 h -2.469444 -2.469445 v 2.64583 2.64583 h 2.469445 2.469444 z m 7.055556,0 V 77.46146 H 74.751835 72.28239 v 2.64583 2.64583 h 2.469445 2.469444 z m 7.408334,0 v -2.64583 h -2.645834 -2.645833 v 2.64583 2.64583 h 2.645833 2.645834 z m 7.055556,0 v -2.64583 h -2.645834 -2.645833 v 2.64583 2.64583 h 2.645833 2.645834 z m 7.05556,0 V 77.46146 H 96.27128 93.801835 v 2.64583 2.64583 h 2.469445 2.469449 z m 7.408331,0 v -2.64583 h -2.64583 -2.64584 v 2.64583 2.64583 h 2.64584 2.64583 z m 7.05555,0 v -2.64583 h -2.46944 -2.46944 v 2.64583 2.64583 h 2.46944 2.46944 z m 7.05556,0 v -2.64583 h -2.46944 -2.46945 v 2.64583 2.64583 h 2.46945 2.46944 z m 11.99445,0 v -2.64583 h -4.93889 -4.93889 v 2.64583 2.64583 h 4.93889 4.93889 z M 38.062944,72.87534 V 70.4059 h -3.704167 -3.704166 v 2.46944 2.46945 h 3.704166 3.704167 z m 7.055556,0 V 70.4059 h -2.645833 -2.645834 v 2.46944 2.46945 h 2.645834 2.645833 z m 7.408334,0 V 70.4059 H 49.881 47.235167 v 2.46944 2.46945 H 49.881 52.526834 Z m 7.055555,0 V 70.4059 H 57.112945 54.6435 v 2.46944 2.46945 h 2.469445 2.469444 z m 7.408334,0 V 70.4059 H 64.34489 61.699056 v 2.46944 2.46945 h 2.645834 2.645833 z m 7.055556,0 V 70.4059 h -2.645833 -2.645834 v 2.46944 2.46945 h 2.645834 2.645833 z m 7.055556,0 V 70.4059 H 78.63239 76.162946 v 2.46944 2.46945 h 2.469444 2.469445 z m 7.408333,0 V 70.4059 h -2.645833 -2.645833 v 2.46944 2.46945 h 2.645833 2.645833 z m 7.055556,0 V 70.4059 h -2.645833 -2.645834 v 2.46944 2.46945 h 2.645834 2.645833 z m 7.055556,0 V 70.4059 h -2.46944 -2.469449 v 2.46944 2.46945 h 2.469449 2.46944 z m 7.40833,0 V 70.4059 h -2.64583 -2.64583 v 2.46944 2.46945 h 2.64583 2.64583 z m 7.05556,0 V 70.4059 h -2.64583 -2.64584 v 2.46944 2.46945 h 2.64584 2.64583 z m 7.05556,0 V 70.4059 h -2.46945 -2.46944 v 2.46944 2.46945 h 2.46944 2.46945 z m 8.11389,0 V 70.4059 h -2.99862 -2.99861 v 2.46944 2.46945 h 2.99861 2.99862 z M 34.182388,65.6434 V 62.99757 H 32.4185 30.654611 v 2.64583 2.64583 h 1.763889 1.763888 z m 7.055556,0 V 62.99757 H 38.7685 36.299055 v 2.64583 2.64583 h 2.469445 2.469444 z m 7.408334,0 v -2.64583 h -2.645834 -2.645833 v 2.64583 2.64583 h 2.645833 2.645834 z m 7.408334,0 v -2.64583 h -2.645834 -2.645833 v 2.64583 2.64583 h 2.645833 2.645834 z m 7.055555,0 v -2.64583 h -2.469444 -2.469445 v 2.64583 2.64583 h 2.469445 2.469444 z m 7.408334,0 v -2.64583 h -2.645833 -2.645834 v 2.64583 2.64583 h 2.645834 2.645833 z m 7.055556,0 V 62.99757 H 74.928223 72.28239 v 2.64583 2.64583 h 2.645833 2.645834 z m 7.055556,0 v -2.64583 h -2.469445 -2.469444 v 2.64583 2.64583 h 2.469444 2.469445 z m 7.055556,0 v -2.64583 h -2.469445 -2.469445 v 2.64583 2.64583 h 2.469445 2.469445 z m 7.40833,0 v -2.64583 h -2.64583 -2.645834 v 2.64583 2.64583 h 2.645834 2.64583 z m 7.055561,0 v -2.64583 h -2.46945 -2.46944 v 2.64583 2.64583 h 2.46944 2.46945 z m 7.40833,0 v -2.64583 h -2.64583 -2.64583 v 2.64583 2.64583 h 2.64583 2.64583 z m 7.05556,0 v -2.64583 h -2.64583 -2.64584 v 2.64583 2.64583 h 2.64584 2.64583 z m 7.05555,0 v -2.64583 h -2.46944 -2.46944 v 2.64583 2.64583 h 2.46944 2.46944 z m 4.58612,0 v -2.64583 h -1.23473 -1.23472 v 2.64583 2.64583 h 1.23472 1.23473 z"
         id="path301"
         sodipodi:nodetypes="cccccccccccccccccccccccccccccccccccccccccccccccccccccccccccccccccccccccccccccccccccccccccccccccccccccccccccccccccccccccccccccccccccccccccccccccccccccccccccccccccccccccccccccccccccccccccccccccccccccccccccccccccccccccccccccccccccccccccccccccccccccccccccccccccccccccccccccccccccccccccccccccccccccccccccccccccccccccccccccccccccccccccccccccccccccccccccccccccccccccccccccccccccccccccccccccccccccccccccccccccccccccccccccccccccccccccccccccccccccccccccccccccccccccccccccccccccccccccccccccccccccccccccccccccccccccccccccccccccccccccccccccccccccccccccccccccccccccccccccccc"
         inkscape:label="keyboard" /><path
         id="path533"
         style="fill:#000000;stroke-width:1"
         d="m 147.47297,65.1759 -1.03457,0.535368 -0.50022,0.258382 -0.40566,0.40566 -0.40566,0.40566 -0.25839,0.500228 -0.53485,1.034045 0.004,9.260934 0.004,9.369454 0.54053,1.585949 0.22686,0.665076 0.0682,0.144695 0.53382,1.127062 0.94413,1.103293 0.4377,0.511079 0.10955,0.09922 1.17513,1.0635 1.34513,0.657325 1.62368,0.793233 0.44855,0.126607 1.88774,0.157097 0.7059,0.05891 0.70538,-0.05891 1.88723,-0.157097 0.44958,-0.126607 1.62264,-0.793233 1.34514,-0.657325 1.17564,-1.0635 0.10748,-0.09715 0.43925,-0.513146 0.94413,-1.103293 0.53382,-1.127062 0.0682,-0.144178 0.22686,-0.665593 0.54054,-1.586983 0.004,-9.36842 0.004,-9.260934 -0.53433,-1.034045 -0.25838,-0.499711 -0.40618,-0.406177 -0.40566,-0.40566 -0.49971,-0.258382 -1.03508,-0.535368 h -6.54379 -0.74104 z m -0.17519,2.116667 h 0.25993 2.66806 0.30489 2.97346 0.64957 v 4.057116 4.0566 h -0.64957 -3.52743 -3.52588 -0.002 v -3.502628 -3.502629 l 0.002,-0.0021 v -0.259932 l 0.42374,-0.42323 z m 7.32307,0 h 0.64957 3.27887 2.66806 0.25993 l 0.42323,0.42323 0.42323,0.42323 v 0.259932 l 0.002,0.0021 v 3.502629 3.502628 h -0.002 -3.35122 -3.7021 -0.64957 v -4.0566 z m -8.2243,10.230383 h 0.0543 7.90959 0.0543 7.90908 0.0543 l -0.0543,2.402437 v 2.371432 4.773869 l -0.17053,0.408243 -0.004,0.157613 -0.19172,0.310059 -0.18035,0.430983 -0.5457,1.306896 -0.77722,0.83199 -0.25993,0.278536 -0.16795,0.271301 -0.15916,0.07855 -0.18965,0.203607 -1.05834,0.558621 -1.05833,0.558623 -0.61443,0.12609 -0.0889,0.04393 -0.25941,0.02739 -0.27182,0.05581 -1.23507,0.252698 -0.70435,-0.07442 -0.70435,0.07442 -1.23455,-0.252698 -0.2713,-0.05581 -0.26045,-0.02739 -0.0889,-0.04393 -0.61443,-0.12609 -1.05834,-0.558623 -1.05833,-0.558621 -0.19017,-0.203607 -0.15813,-0.07855 -0.16743,-0.270267 -0.26097,-0.27957 -0.77721,-0.83199 -0.5457,-1.306896 -0.18036,-0.430983 -0.19171,-0.310059 -0.004,-0.157613 -0.17053,-0.408243 v -4.773869 -2.371432 z" /></g><path
       id="path721"
       style="font-size:20.0289px;line-height:1.25;font-family:Blackout;-inkscape-font-specification:Blackout;stroke-width:0.264583"
       d="m 28.747082,36.736352 v 20.95015 h 12.217859 19.688204 13.219348 5.828068 12.778548 11.496461 13.74024 5.76813 13.17904 10.73526 11.69696 0.24029 11.31663 V 36.736352 H 159.33549 159.0952 147.39824 136.66298 123.48394 117.71581 103.97557 92.479109 79.700561 73.872493 60.653145 40.964941 Z m 0.961698,2.94401 h 10.134266 v 3.36517 h -3.384807 v 11.53625 H 33.093587 V 43.045532 H 29.70878 Z m 12.438001,0 h 3.965649 l 1.582333,6.69003 1.562178,-6.69003 h 2.824117 l 1.562179,6.69003 1.562178,-6.69003 h 4.166154 l -4.226098,14.90142 h -3.024622 l -1.361674,-6.28903 -1.562178,6.28903 H 45.97187 Z m 25.055835,0 h 0.02015 c 0.787802,0 1.528785,0.15384 2.22312,0.46095 0.707687,0.30711 1.335116,0.74773 1.882572,1.32189 0.480693,0.50739 0.841241,1.08145 1.081588,1.72237 0.240346,0.64093 0.367502,1.30185 0.380855,1.98283 v 3.48506 c 0,0.72104 -0.113554,1.45522 -0.340547,2.20296 -0.213642,0.73439 -0.587792,1.38223 -1.121896,1.94304 -0.547456,0.58751 -1.174885,1.03492 -1.882572,1.34203 -0.694335,0.30711 -1.435318,0.46044 -2.22312,0.46044 h -0.02015 c -0.77445,0 -1.515433,-0.15333 -2.22312,-0.46044 -0.694334,-0.30711 -1.321764,-0.74772 -1.882573,-1.32188 -0.520751,-0.56081 -0.894901,-1.19504 -1.121895,-1.90273 -0.213641,-0.70768 -0.327194,-1.46227 -0.340548,-2.26342 v -3.48506 c 0,-0.64093 0.127156,-1.28824 0.380856,-1.94252 0.253699,-0.66763 0.614246,-1.25529 1.081587,-1.76268 0.560809,-0.57416 1.188239,-1.01478 1.882573,-1.32189 0.694334,-0.30711 1.435317,-0.46095 2.22312,-0.46095 z m 13.539742,0 h 3.004468 c 1.161674,0 2.183141,0.19362 3.064412,0.58084 0.881271,0.37388 1.615452,0.89455 2.202966,1.56218 0.587514,0.65428 1.028126,1.44235 1.321884,2.36368 0.293757,0.90798 0.440799,1.88915 0.440799,2.94401 0,1.00144 -0.113553,1.95645 -0.340547,2.86442 -0.226995,0.89463 -0.601145,1.68218 -1.121896,2.36317 -0.52075,0.68098 -1.201556,1.22206 -2.042769,1.62264 -0.841212,0.40057 -1.869481,0.60048 -3.084566,0.60048 h -0.440283 -3.004468 z m 12.798185,0 h 9.133297 v 3.36517 h -5.768128 v 2.40347 h 4.245738 v 3.36465 h -4.245738 v 2.40347 h 5.768128 v 3.36466 h -9.133297 z m 10.976077,0 h 3.96565 l 2.24327,6.72982 2.20297,-6.72982 h 3.96565 l -4.78679,14.90142 h -3.00447 z m 14.24047,0 h 3.36466 v 14.90142 h -3.36466 z m 11.11612,0 h 0.0202 c 0.81451,0 1.51521,0.11355 2.10272,0.34055 0.58752,0.22699 1.08831,0.52108 1.50223,0.8816 0.42729,0.36052 0.76795,0.76764 1.02164,1.22163 0.26706,0.45399 0.47376,0.90768 0.62064,1.36167 l -2.90422,1.62264 c -0.0801,-0.24034 -0.19315,-0.48734 -0.34003,-0.74104 -0.13352,-0.2537 -0.30046,-0.4808 -0.50074,-0.68109 -0.2003,-0.20029 -0.4274,-0.36042 -0.6811,-0.48059 -0.2537,-0.12018 -0.5211,-0.17355 -0.8015,-0.1602 -0.68099,0.0534 -1.22835,0.32709 -1.64228,0.82114 -0.40058,0.48069 -0.60048,1.08823 -0.60048,1.82263 v 2.90421 c 0,0.73439 0.2067,1.35502 0.62064,1.86242 0.41392,0.49404 0.96129,0.76772 1.64227,0.82114 0.57416,0.0401 1.04827,-0.10647 1.42214,-0.44028 0.38723,-0.33382 0.6808,-0.73466 0.88108,-1.202 l 2.90422,1.62264 c -0.12017,0.24035 -0.29339,0.547 -0.52038,0.92088 -0.21364,0.37387 -0.52081,0.74122 -0.92139,1.10174 -0.40058,0.36052 -0.91497,0.67449 -1.54255,0.94154 -0.61421,0.2537 -1.37508,0.38034 -2.28306,0.38034 h -0.0202 c -1.0148,0 -1.86934,-0.16013 -2.56367,-0.48059 -0.68098,-0.32046 -1.24195,-0.74747 -1.68259,-1.28158 -0.42728,-0.54745 -0.74074,-1.1754 -0.94102,-1.88309 -0.20028,-0.72103 -0.32064,-1.46882 -0.36071,-2.24327 v -3.08405 c 0.0133,-0.73439 0.13371,-1.45549 0.36071,-2.16317 0.24034,-0.72104 0.58729,-1.36208 1.04128,-1.92288 0.46734,-0.56081 1.04819,-1.00823 1.74253,-1.34204 0.69433,-0.34717 1.50229,-0.5209 2.42362,-0.5209 z m 7.09001,0 h 9.13329 v 3.36517 h -5.76812 v 2.40347 h 4.24573 v 3.36465 h -4.24573 v 2.40347 h 5.76812 v 3.36466 h -9.13329 z m 16.20366,0 c 0.73439,0 1.37543,0.10675 1.92288,0.32039 0.5608,0.20029 1.02811,0.46089 1.40198,0.78135 0.38723,0.32046 0.6876,0.68781 0.90124,1.10174 0.21364,0.40058 0.35388,0.8009 0.42064,1.20148 l -2.94452,1.16169 c -0.04,-0.14688 -0.10023,-0.30701 -0.18035,-0.48059 -0.0801,-0.18694 -0.19367,-0.35387 -0.34055,-0.50075 -0.13352,-0.16023 -0.29994,-0.29367 -0.50023,-0.40049 -0.18694,-0.10682 -0.40724,-0.1602 -0.66094,-0.1602 -0.26704,0 -0.51456,0.0869 -0.74155,0.26045 -0.21365,0.16023 -0.3204,0.40723 -0.3204,0.74104 0,0.2537 0.10047,0.48081 0.30076,0.6811 0.21364,0.18693 0.5407,0.44021 0.98133,0.76067 0.61422,0.34717 1.20187,0.69463 1.76269,1.0418 0.57416,0.34717 1.08124,0.74069 1.52187,1.18132 0.44064,0.44064 0.79439,0.94143 1.06143,1.50224 0.26706,0.54745 0.40101,1.20209 0.40101,1.96318 v 0.28009 c -0.0267,0.48069 -0.16695,0.93491 -0.42064,1.36219 -0.24035,0.41393 -0.58102,0.78128 -1.02165,1.10174 -0.42728,0.30711 -0.94796,0.55411 -1.56218,0.74104 -0.61422,0.17359 -1.30862,0.25994 -2.08307,0.25994 -0.60087,0 -1.16812,-0.0801 -1.70223,-0.2403 -0.52074,-0.16023 -0.99484,-0.38682 -1.42213,-0.68058 -0.42728,-0.29376 -0.79463,-0.64802 -1.10174,-1.06195 -0.29376,-0.42728 -0.50726,-0.90767 -0.64079,-1.44177 l 3.20446,-1.34204 c -0.0267,0.0134 -3e-5,0.10702 0.0801,0.2806 0.0935,0.17359 0.22011,0.36041 0.38034,0.56069 0.16023,0.18694 0.35385,0.36067 0.58085,0.5209 0.24034,0.14688 0.49414,0.20026 0.76119,0.1602 0.22699,-0.0267 0.44729,-0.12717 0.66094,-0.30076 0.22697,-0.17358 0.33373,-0.44726 0.3204,-0.82114 -0.0134,-0.22699 -0.10651,-0.43369 -0.28009,-0.62063 -0.16023,-0.20029 -0.39414,-0.40751 -0.70125,-0.62115 -0.68098,-0.45399 -1.31521,-0.84803 -1.90273,-1.18184 -0.57416,-0.34717 -1.08123,-0.70772 -1.52187,-1.08159 -0.42728,-0.37387 -0.76794,-0.79408 -1.02164,-1.26142 -0.24035,-0.46734 -0.3607,-1.05499 -0.3607,-1.76268 0,-0.65428 0.13344,-1.22833 0.40049,-1.72238 0.26705,-0.49404 0.62131,-0.90797 1.06195,-1.24178 0.44063,-0.33382 0.94771,-0.58761 1.52187,-0.7612 0.57417,-0.17358 1.16862,-0.26725 1.78284,-0.2806 z m 11.837,0.0202 h 0.0202 c 0.64092,0 1.22806,0.10675 1.76216,0.32039 0.5341,0.20029 0.99512,0.48758 1.38235,0.86145 0.40058,0.36052 0.70775,0.80113 0.92139,1.32188 0.22699,0.5074 0.34003,1.08145 0.34003,1.72238 0,0.54745 -0.0597,1.00167 -0.17984,1.36219 -0.12017,0.34717 -0.28082,0.64754 -0.4811,0.90124 -0.18694,0.25369 -0.40724,0.474 -0.66094,0.66094 -0.2537,0.17358 -0.51378,0.3604 -0.78084,0.56069 -0.26705,0.18693 -0.53393,0.40044 -0.80098,0.64078 -0.26705,0.24035 -0.51456,0.54072 -0.74156,0.90124 -0.0801,0.14688 -0.13346,0.3473 -0.16019,0.601 -0.0133,0.13352 -0.0196,0.27377 -0.0196,0.42064 h -2.76417 v -0.60099 c 0,-0.49405 0.0466,-0.92786 0.14004,-1.30173 0.0935,-0.37387 0.22062,-0.70093 0.38086,-0.98134 0.17358,-0.29375 0.3672,-0.54075 0.58084,-0.74104 0.22699,-0.21364 0.47399,-0.40046 0.74104,-0.56069 0.54746,-0.34716 0.91481,-0.64125 1.10174,-0.8816 0.20029,-0.24034 0.30024,-0.48054 0.30024,-0.72088 0,-0.34717 -0.13344,-0.62085 -0.40049,-0.82114 -0.2537,-0.21364 -0.55407,-0.32039 -0.90124,-0.32039 -0.40058,0 -0.73444,0.12663 -1.00149,0.38033 -0.26705,0.2537 -0.40049,0.55407 -0.40049,0.90124 l -3.12487,-0.76119 c 0,-0.64093 0.12035,-1.20138 0.3607,-1.68207 0.25369,-0.48069 0.59435,-0.88153 1.02164,-1.20199 0.44063,-0.32047 0.9477,-0.56066 1.52187,-0.72089 0.57416,-0.17358 1.18851,-0.26045 1.84278,-0.26045 z m -2.14302,12.11761 h 2.74402 v 2.76365 h -2.74402 z" /><path
       id="path392"
       style="font-size:20.0289px;line-height:1.25;font-family:Blackout;-inkscape-font-specification:Blackout;stroke-width:0.264583"
       d="m 28.537793,106.49751 v 21.34495 h 12.447819 20.059241 13.468428 5.938139 13.01936 15.97784 12.59044 13.24364 12.22354 11.16211 0.36742 11.40706 V 106.49751 H 159.03577 158.66835 147.50624 135.2827 122.03906 109.44862 93.47078 80.45142 74.513281 61.044853 40.985612 Z m 0.979785,2.99982 h 10.325468 v 3.42821 h -3.448885 v 11.75381 h -3.428215 v -11.75381 h -3.448368 z m 12.672095,0 h 4.04058 l 1.611788,6.8156 1.591634,-6.8156 h 2.877344 l 1.591634,6.8156 1.592151,-6.8156 h 4.244185 l -4.30568,15.18202 h -3.081466 l -1.387512,-6.40736 -1.591634,6.40736 h -3.285588 z m 25.528157,0 h 0.02067 c 0.802644,0 1.557563,0.15633 2.264978,0.46922 0.721019,0.3129 1.360459,0.76223 1.918229,1.34721 0.489748,0.51695 0.856867,1.10193 1.101742,1.75493 0.244871,0.653 0.373966,1.32622 0.387573,2.02003 v 3.55069 c 0,0.73462 -0.115479,1.48299 -0.346749,2.24482 -0.217666,0.74823 -0.5984,1.40784 -1.142566,1.97921 -0.55777,0.59858 -1.19721,1.05446 -1.918229,1.36736 -0.707415,0.31289 -1.462334,0.46922 -2.264978,0.46922 h -0.02067 c -0.789039,0 -1.543958,-0.15633 -2.264978,-0.46922 -0.707414,-0.3129 -1.346855,-0.76223 -1.918229,-1.34721 -0.530561,-0.57137 -0.911295,-1.21736 -1.142566,-1.93838 -0.217663,-0.72102 -0.333659,-1.48955 -0.347265,-2.3058 v -3.55069 c 0,-0.653 0.129612,-1.3126 0.38809,-1.97921 0.258478,-0.6802 0.625596,-1.2788 1.101741,-1.79575 0.571374,-0.58498 1.210815,-1.03431 1.918229,-1.34721 0.707416,-0.31289 1.462335,-0.46922 2.264978,-0.46922 z m 13.182658,0 h 3.428215 v 5.87716 h 4.060734 v -5.87716 h 3.428214 v 15.18202 h -3.428214 v -5.87664 h -4.060734 v 5.87664 h -3.428215 z m 17.875395,0 h 4.571297 l 4.44831,15.18202 h -3.89744 l -1.36736,-3.99924 h -2.95847 l -1.347208,3.99924 h -3.897436 z m 10.937837,0 h 3.48971 l 4.06073,7.44812 v -7.44812 h 3.63234 v 15.18202 h -3.46904 l -4.08141,-7.46828 v 7.46828 h -3.63233 z m 13.61105,0 h 3.0608 c 1.18356,0 2.22442,0.19718 3.12229,0.5917 0.89787,0.38091 1.64624,0.91142 2.24482,1.59163 0.59858,0.6666 1.0474,1.46944 1.34669,2.40812 0.29929,0.92508 0.44907,1.92509 0.44907,2.99982 0,1.02031 -0.11548,1.99308 -0.34675,2.91817 -0.23127,0.91147 -0.61253,1.71379 -1.14308,2.4076 -0.53057,0.69381 -1.22447,1.24501 -2.08153,1.65313 -0.85706,0.40812 -1.90447,0.61185 -3.14244,0.61185 h -0.44907 -3.0608 z m 17.89607,0 c 0.74823,0 1.40128,0.10893 1.95905,0.3266 0.57137,0.20406 1.04793,0.46931 1.42885,0.79581 0.39452,0.3265 0.70063,0.70069 0.91829,1.12241 0.21767,0.40813 0.36038,0.8161 0.4284,1.22422 l -2.99981,1.18339 c -0.0408,-0.14965 -0.10184,-0.31252 -0.18346,-0.48938 -0.0816,-0.19045 -0.19762,-0.36091 -0.34726,-0.51056 -0.13605,-0.16325 -0.30598,-0.29889 -0.51005,-0.40773 -0.19045,-0.10883 -0.41486,-0.16329 -0.67334,-0.16329 -0.27209,0 -0.52373,0.0883 -0.75499,0.2651 -0.21767,0.16324 -0.3266,0.41488 -0.3266,0.75499 0,0.25848 0.10186,0.48995 0.30592,0.69401 0.21767,0.19046 0.551,0.44865 0.99994,0.77515 0.6258,0.35371 1.22439,0.70773 1.79576,1.06143 0.58497,0.35371 1.10187,0.75513 1.55081,1.20406 0.44893,0.44894 0.8095,0.95877 1.08159,1.53014 0.27208,0.55777 0.40824,1.22445 0.40824,1.99988 v 0.28577 c -0.0272,0.48975 -0.16992,0.95218 -0.4284,1.38751 -0.24487,0.42173 -0.59183,0.79592 -1.04076,1.12242 -0.43533,0.31289 -0.96584,0.56453 -1.59163,0.75499 -0.6258,0.17685 -1.33332,0.2651 -2.12236,0.2651 -0.61218,0 -1.19009,-0.0812 -1.73426,-0.24443 -0.53056,-0.16325 -1.01368,-0.39472 -1.449,-0.69401 -0.43534,-0.2993 -0.80952,-0.65986 -1.12242,-1.08159 -0.29929,-0.43534 -0.51715,-0.925 -0.65319,-1.46916 l 3.26544,-1.36736 c -0.0272,0.0136 -5e-4,0.10891 0.0811,0.28577 0.0952,0.17685 0.22484,0.36748 0.38809,0.57154 0.16325,0.19046 0.36043,0.36695 0.5917,0.5302 0.24487,0.14965 0.50306,0.20411 0.77514,0.1633 0.23127,-0.0272 0.4562,-0.12907 0.67386,-0.30593 0.23128,-0.17685 0.33968,-0.45572 0.32608,-0.83664 -0.0136,-0.23127 -0.1084,-0.44206 -0.28525,-0.63252 -0.16326,-0.20406 -0.4018,-0.41485 -0.71469,-0.63252 -0.6938,-0.46254 -1.33979,-0.86395 -1.93838,-1.20406 -0.58497,-0.35371 -1.10188,-0.72082 -1.55081,-1.10174 -0.43534,-0.38092 -0.78228,-0.80956 -1.04076,-1.28571 -0.24488,-0.47614 -0.36742,-1.07474 -0.36742,-1.79576 0,-0.6666 0.13615,-1.25157 0.40824,-1.75493 0.27208,-0.50335 0.63265,-0.92545 1.08159,-1.26555 0.44894,-0.34011 0.96583,-0.5983 1.55081,-0.77515 0.58498,-0.17685 1.19012,-0.27216 1.81591,-0.28577 z m 12.06024,0.0207 h 0.0207 c 0.653,0 1.25159,0.10841 1.79576,0.32608 0.54417,0.20406 1.01315,0.49655 1.40767,0.87746 0.40812,0.36732 0.72129,0.81665 0.93896,1.34721 0.23126,0.51696 0.34675,1.10193 0.34675,1.75493 0,0.55777 -0.061,1.0202 -0.18346,1.38751 -0.12244,0.35371 -0.28583,0.65981 -0.48989,0.91829 -0.19046,0.25848 -0.41486,0.48289 -0.67334,0.67335 -0.25848,0.17685 -0.52374,0.36748 -0.79582,0.57154 -0.27208,0.19046 -0.5444,0.4078 -0.81649,0.65267 -0.27208,0.24488 -0.52372,0.55098 -0.75499,0.91829 -0.0816,0.14965 -0.13603,0.35389 -0.1633,0.61237 -0.0136,0.13604 -0.0202,0.27875 -0.0202,0.4284 h -2.81637 v -0.61237 c 0,-0.50335 0.0479,-0.9451 0.14315,-1.32602 0.0952,-0.38091 0.22432,-0.71425 0.38757,-0.99994 0.17686,-0.29929 0.37404,-0.55093 0.5917,-0.75499 0.23127,-0.21767 0.4829,-0.40829 0.75499,-0.57154 0.55777,-0.35371 0.93196,-0.65275 1.12241,-0.89762 0.20406,-0.24487 0.30644,-0.48996 0.30644,-0.73484 0,-0.35371 -0.13616,-0.63258 -0.40824,-0.83664 -0.25848,-0.21767 -0.56459,-0.3266 -0.91829,-0.3266 -0.40813,0 -0.74853,0.1291 -1.02061,0.38758 -0.27209,0.25848 -0.40773,0.56458 -0.40773,0.91829 l -3.18378,-0.77515 c 0,-0.653 0.12254,-1.22436 0.36742,-1.71411 0.25848,-0.48974 0.60543,-0.89823 1.04076,-1.22473 0.44893,-0.3265 0.96583,-0.57107 1.55081,-0.73432 0.58498,-0.17685 1.2108,-0.2651 1.8774,-0.2651 z m 11.40706,0 h 0.0207 c 0.65301,0 1.2516,0.10841 1.79576,0.32608 0.54416,0.20406 1.01314,0.49655 1.40766,0.87746 0.40813,0.36732 0.7213,0.81665 0.93896,1.34721 0.23128,0.51696 0.34675,1.10193 0.34675,1.75493 0,0.55777 -0.061,1.0202 -0.18345,1.38751 -0.12244,0.35371 -0.28583,0.65981 -0.48989,0.91829 -0.19046,0.25848 -0.41487,0.48289 -0.67335,0.67335 -0.25848,0.17685 -0.52374,0.36748 -0.79581,0.57154 -0.27209,0.19046 -0.54441,0.4078 -0.81649,0.65267 -0.27208,0.24488 -0.52372,0.55098 -0.75499,0.91829 -0.0816,0.14965 -0.13603,0.35389 -0.1633,0.61237 -0.0136,0.13604 -0.0202,0.27875 -0.0202,0.4284 h -2.81584 v -0.61237 c 0,-0.50335 0.0474,-0.9451 0.14262,-1.32602 0.0952,-0.38091 0.22433,-0.71425 0.38758,-0.99994 0.17685,-0.29929 0.37402,-0.55093 0.59169,-0.75499 0.23127,-0.21767 0.48291,-0.40829 0.75499,-0.57154 0.55778,-0.35371 0.93196,-0.65275 1.12242,-0.89762 0.20406,-0.24487 0.30644,-0.48996 0.30644,-0.73484 0,-0.35371 -0.13617,-0.63258 -0.40825,-0.83664 -0.25848,-0.21767 -0.56457,-0.3266 -0.91829,-0.3266 -0.40812,0 -0.74852,0.1291 -1.02061,0.38758 -0.27208,0.25848 -0.40772,0.56458 -0.40772,0.91829 l -3.18379,-0.77515 c 0,-0.653 0.12255,-1.22436 0.36742,-1.71411 0.25848,-0.48974 0.60542,-0.89823 1.04076,-1.22473 0.44894,-0.3265 0.96584,-0.57107 1.55081,-0.73432 0.58499,-0.17685 1.21081,-0.2651 1.87741,-0.2651 z m -13.59039,12.3455 h 2.7957 v 2.81585 h -2.7957 z m 11.40706,0 h 2.79569 v 2.81585 h -2.79569 z" /></g></svg>
