<?xml version="1.0" encoding="UTF-8" standalone="no"?>
<!-- Created with Inkscape (http://www.inkscape.org/) -->

<svg
   width="67.078506mm"
   height="58.494186mm"
   viewBox="-50 -30 67.078506 58.494186"
   version="1.1"
   id="svg5"
   inkscape:version="1.2.2 (1:1.2.2+202212051551+b0a8486541)"
   sodipodi:docname="scale_controls.svg"
   xml:space="preserve"
   xmlns:inkscape="http://www.inkscape.org/namespaces/inkscape"
   xmlns:sodipodi="http://sodipodi.sourceforge.net/DTD/sodipodi-0.dtd"
   xmlns:xlink="http://www.w3.org/1999/xlink"
   xmlns="http://www.w3.org/2000/svg"
   xmlns:svg="http://www.w3.org/2000/svg">
<sodipodi:namedview
   id="namedview7"
   pagecolor="#292929"
   bordercolor="#666666"
   borderopacity="1.0"
   inkscape:pageshadow="2"
   inkscape:pageopacity="0"
   inkscape:pagecheckerboard="0"
   inkscape:document-units="mm"
   showgrid="false"
   inkscape:showpageshadow="2"
   inkscape:deskcolor="#292929"
   inkscape:zoom="2.8284271"
   inkscape:cx="115.96551"
   inkscape:cy="62.04862"
   inkscape:window-width="2560"
   inkscape:window-height="1376"
   inkscape:window-x="0"
   inkscape:window-y="0"
   inkscape:window-maximized="1"
   inkscape:current-layer="layer7"
   showguides="true" />

   <style>
@keyframes appear1 {
    0% { opacity: 0;}
    50% { opacity: 0;}
    50.1% { opacity: 1;}
    100% { opacity: 1;}
}
@keyframes dashed {
    0% { stroke-opacity: 0;}
    50% { stroke-opacity: 0;}
    50.1% { stroke-opacity: 1;}
    100% { stroke-opacity: 1;}
}
#g693 {
    animation: appear1 4s linear infinite;
}
#rect360 {
    animation: dashed 4s linear infinite;
}
   </style>

    <g inkscape:groupmode="layer" id="layer7" inkscape:label="Layer 4">
         <rect style="fill:#e6e6e6;stroke:none;stroke-width:0.529166;stroke-dasharray:none;paint-order:stroke fill markers;stop-color:#000000" id="rect6026" width="67.078506" height="58.494186" x="-49.999996" y="-30" inkscape:label="canvas" />
        <g id="g309" transform="matrix(2,0,0,2,54.348877,32.467075)" style="stroke-width:0.5">
            <rect style="fill:#008000;stroke:#000000;stroke-width:0.05;stroke-dasharray:0.15, 0.15;stroke-dashoffset:0;paint-order:stroke fill markers;stop-color:#000000" id="rect360" width="18.027784" height="19.504282" x="-46.648167" y="-26.609991" />
            <g id="g6027" transform="translate(-43.835223,-10.914858)" style="stroke-width:0.5">
                <path style="fill:#000000;stroke:#ffffff;stroke-width:0.15;stroke-linecap:butt;stroke-linejoin:miter;stroke-dasharray:none;stroke-opacity:1;paint-order:stroke fill markers" d="m 7.260006,-5.882099 v 1.655447 l 0.33834,-0.339614 0.406543,0.83684 0.244059,-0.126664 -0.377606,-0.823043 0.559071,-0.016 z" id="path369" />
                <path id="path371" style="fill:#000000;stroke:#ffffff;stroke-width:0.15;stroke-linecap:butt;stroke-linejoin:miter;stroke-dasharray:none;stroke-opacity:1;paint-order:stroke fill markers" d="m 9.588804,-4.246209 -0.342888,0.35346 h 0.285907 v 0.09081 0.302787 H 9.230172 9.139952 v -0.286983 l -0.352385,0.344178 0.352385,0.34443 V -3.38451 h 0.09022 0.301651 v 0.302787 0.09056 H 9.245916 l 0.342888,0.353711 0.343138,-0.353711 H 9.646036 v -0.09056 -0.302787 h 0.301651 0.09047 v 0.286983 l 0.352135,-0.34443 -0.352135,-0.344178 v 0.286983 H 9.947687 9.646036 v -0.302787 -0.09081 h 0.285906 z" />
            </g>
        </g>
        <g id="g693" inkscape:label="controls">
            <path id="path969" style="fill:#000000;stroke:none;stroke-width:0.5;stroke-linecap:square;stroke-linejoin:miter;stroke-dasharray:none;stroke-dashoffset:0;paint-order:stroke fill markers;stop-color:#000000" d="m -20.918974,-21.135674 0.96945,-0.96945 h -0.525032 v -1.326016 h 0.525032 l -0.96945,-0.970484 -0.970484,0.970484 h 0.525034 v 1.326016 h -0.525034 z" />
            <use x="0" y="0" xlink:href="#path969" id="use2914" transform="translate(4.6656299e-5,42.962938)" />
            <use x="0" y="0" xlink:href="#path969" id="use3642" transform="rotate(90,-21.646298,-1.9752048)" />
            <use x="0" y="0" xlink:href="#path969" id="use3644" transform="rotate(90,-41.659974,-21.98888)" />
            <use x="0" y="0" xlink:href="#path969" id="use3646" transform="rotate(135,-30.77673,-26.523285)" inkscape:transform-center-x="1.4045429" inkscape:transform-center-y="-1.4049812" />
            <use x="0" y="0" xlink:href="#path969" id="use3648" transform="rotate(-135,-11.061822,-26.522957)" inkscape:transform-center-x="-1.4049811" inkscape:transform-center-y="-1.4045427" />
            <use x="0" y="0" xlink:href="#path969" id="use3650" transform="rotate(135,-19.984225,2.5259266)" inkscape:transform-center-x="1.4045429" inkscape:transform-center-y="-1.4049812" />
            <use x="0" y="0" xlink:href="#path969" id="use3652" transform="rotate(45,-81.851674,-25.012049)" inkscape:transform-center-x="1.4049813" inkscape:transform-center-y="1.4045426" />
        </g>
        <g id="g5205" inkscape:label="rotate" style="display: none">
            <path id="path5189" style="fill:#000000;stroke:none;stroke-width:0.5;stroke-linecap:square;stroke-linejoin:miter;stroke-dasharray:none;stroke-dashoffset:0;paint-order:stroke fill markers;stop-color:#000000" d="m -22.552466,-22.768132 0.96945,0.96945 v -0.525032 H -20.257 v 0.525032 l 0.970484,-0.96945 -0.970484,-0.970484 v 0.525034 h -1.326016 v -0.525034 z" />
            <use x="0" y="0" xlink:href="#path969" id="use5191" transform="rotate(90,-42.400937,-1.2871567)" />
            <use x="0" y="0" xlink:href="#path969" id="use5193" transform="rotate(180,-10.886172,-12.008523)" />
            <use x="0" y="0" xlink:href="#path969" id="use5195" transform="rotate(180,-30.899848,-12.008523)" />
            <path id="path5207" style="fill:#000000;stroke:none;stroke-width:0.1;stroke-linecap:square;stroke-linejoin:miter;stroke-dasharray:none;stroke-dashoffset:0;paint-order:stroke fill markers;stop-color:#000000" d="m -1.3520561,-21.77339 0.96944993,0.970483 0.9704834,-0.970483 h -0.5172811 c -2.617e-4,-1.06911 -0.87436217,-1.935694 -1.96215413,-1.935799 v -0.525033 l -0.9694499,0.970484 0.9694499,0.96945 v -0.525033 c 0.5877638,7.9e-5 1.06427411,0.468262 1.06453451,1.045931 z" sodipodi:nodetypes="ccccccccccc" />
            <use x="0" y="0" xlink:href="#path5207" id="use5445" transform="rotate(-90,-20.901251,-2.7626644)" />
            <use x="0" y="0" xlink:href="#path5207" id="use5447" transform="rotate(180,-20.929232,-1.2834481)" />
            <use x="0" y="0" xlink:href="#path5207" id="use5449" transform="rotate(90,-22.405731,-1.2386097)" />
        </g>
    </g>
</svg>
